<svg xmlns="http://www.w3.org/2000/svg" width="1654" height="1080" viewBox="0 0 1654 1080">
  <defs>
    <style>
      .cls-1 {
        fill: #feeacb;
      }

      .cls-1, .cls-2, .cls-3, .cls-4, .cls-5, .cls-6 {
        fill-rule: evenodd;
      }

      .cls-2 {
        fill: #ff5d1b;
      }

      .cls-3 {
        fill: #f8331a;
      }

      .cls-4 {
        fill: #a11c34;
      }

      .cls-5 {
        fill: #7b1b3b;
      }

      .cls-6 {
        fill: #5d1633;
      }
    </style>
  </defs>
  <path class="cls-1" d="M-9.189-32.17H1733.25V1129.4H-9.189V-32.17Z"/>
  <path id="Color_Fill_4" data-name="Color Fill 4" class="cls-2" d="M315.107,551.294v0.628c0.677,0.409.655,1.067,0.967,1.254h1.29v0.314a4.3,4.3,0,0,0-2.9.941h-0.645l-0.644.942L311.24,556v0.314H310.6v0.313h-1.934v0.314c-1.336.355-5.011-.858-5.8-1.255v-0.313h-0.645v-0.314h-1.934v-0.314H297.7v-0.314h-0.966v-0.313h-0.967V553.8a0.558,0.558,0,0,1-.323-0.314c2.434,0.1,3.759.5,5.8-.314,0.6-1.062.931-1.043,0.967-2.823-0.694-.573-0.738-1.463-1.289-2.2H300.6c-0.107-.209-0.215-0.418-0.322-0.628h-0.645l-0.644-.941h-0.645l-0.322-.627H297.38v-0.314h-0.644v-0.314h-0.967V545.02h-0.645v-0.314h-0.645c-0.107-.209-0.215-0.418-0.322-0.628l-1.289-.313-0.645-.941h-0.644L289,540h0.645c0.683,0.98,1.286.661,2.256,1.255l0.322,0.627,2.9,0.942v0.313l1.289,0.314v0.314h0.967v0.313h0.967v0.314h1.612v0.314l2.256,0.314v0.313h0.645v0.314l1.611,0.314v0.314l0.967,0.313,0.322,0.628H306.4l0.322,0.627,1.29,0.941v0.628l0.644,0.313v0.628h0.322l0.323,0.627h1.934v-0.313l1.611-.314,1.289-1.569c1.487-.8,4.193.261,5.48,0.628H322.2v0.313l5.8-.627v0.314h-0.322v0.313l-0.967.314v0.314h-0.967v0.314h-4.513A31.734,31.734,0,0,0,315.107,551.294Z"/>
  <path id="Color_Fill_4_copy" data-name="Color Fill 4 copy" class="cls-2" d="M214.521,598.931v1.107c1.179,0.723,1.141,1.884,1.686,2.215h2.248v0.553c-3.181.124-3.171,0.6-5.058,1.661h-1.124q-0.562.831-1.124,1.661l-3.372,1.107v0.554h-1.124v0.554h-3.372V608.9c-2.33.627-8.737-1.514-10.116-2.214v-0.554h-1.124v-0.554h-3.372v-0.553h-4.5v-0.554h-1.686v-0.554H180.8V603.36a0.977,0.977,0,0,1-.562-0.554c4.243,0.169,6.554.887,10.115-.553,1.047-1.876,1.623-1.841,1.686-4.983-1.21-1.011-1.287-2.582-2.248-3.876h-0.562q-0.28-.553-0.562-1.107h-1.124l-1.124-1.661H185.3q-0.282-.553-0.562-1.107h-1.124v-0.554h-1.124v-0.553H180.8v-0.554h-1.124V587.3h-1.124q-0.282-.554-0.562-1.107l-2.248-.553-1.124-1.661H173.5L169,579h1.124c1.192,1.73,2.243,1.167,3.934,2.215l0.562,1.107,5.058,1.661v0.553l2.248,0.554v0.554h1.686V586.2H185.3v0.554h2.809V587.3l3.934,0.554v0.554h1.124v0.553l2.81,0.554v0.554l1.686,0.553,0.562,1.108h1.124l0.562,1.107,2.248,1.661v1.107l1.124,0.554v1.107h0.562l0.562,1.107h3.372v-0.553l2.81-.554q1.124-1.385,2.248-2.768c2.591-1.416,7.309.46,9.553,1.107h4.5v0.554L237,595.055v0.554h-0.562v0.554l-1.686.553v0.554h-1.686v0.554H225.2A54.77,54.77,0,0,0,214.521,598.931Z"/>
  <path id="Color_Fill_4_copy_2" data-name="Color Fill 4 copy 2" class="cls-2" d="M1468.52,662.931v1.107c1.18,0.723,1.14,1.884,1.69,2.215h2.24v0.553c-3.18.124-3.17,0.6-5.05,1.661h-1.13c-0.37.554-.75,1.107-1.12,1.661-1.13.369-2.25,0.738-3.37,1.107v0.554h-1.13v0.554h-3.37V672.9c-2.33.627-8.74-1.514-10.11-2.214v-0.554h-1.13v-0.554h-3.37v-0.553h-4.5v-0.554h-1.68v-0.554h-1.69V667.36a0.968,0.968,0,0,1-.56-0.554c4.24,0.169,6.55.887,10.12-.553,1.04-1.876,1.62-1.841,1.68-4.983-1.21-1.011-1.29-2.582-2.25-3.876h-0.56c-0.19-.369-0.37-0.738-0.56-1.107h-1.12c-0.38-.553-0.75-1.107-1.13-1.661h-1.12c-0.19-.369-0.38-0.738-0.56-1.107h-1.13v-0.554h-1.12v-0.553h-1.69v-0.554h-1.12V651.3h-1.13c-0.18-.369-0.37-0.738-0.56-1.107l-2.25-.553c-0.37-.554-0.75-1.108-1.12-1.661h-1.12L1423,643h1.12c1.2,1.73,2.25,1.167,3.94,2.215,0.19,0.369.37,0.738,0.56,1.107,1.69,0.553,3.37,1.107,5.06,1.661v0.553l2.25,0.554v0.554h1.68V650.2h1.69v0.554h2.81V651.3l3.93,0.554v0.554h1.13v0.553c0.93,0.185,1.87.37,2.81,0.554v0.554l1.68,0.553c0.19,0.369.38,0.739,0.56,1.108h1.13c0.18,0.369.37,0.738,0.56,1.107l2.25,1.661v1.107c0.37,0.185.75,0.369,1.12,0.554v1.107h0.56c0.19,0.369.38,0.738,0.56,1.107h3.38v-0.553c0.93-.185,1.87-0.37,2.81-0.554,0.75-.923,1.5-1.846,2.24-2.768,2.6-1.416,7.31.46,9.56,1.107h4.49v0.554q5.07-.553,10.12-1.108v0.554h-0.56v0.554l-1.69.553v0.554h-1.68v0.554h-7.87A54.752,54.752,0,0,0,1468.52,662.931Z"/>
  <path id="Color_Fill_3" data-name="Color Fill 3" class="cls-2" d="M98.727,595.875a9.636,9.636,0,0,1-4.439-.563V594.75H92.624v-0.562a0.979,0.979,0,0,1-.555-0.563c3.377,0.05,8.059-.143,10.542-1.125v-0.562h1.11v-0.563H106.5v-0.563h1.11V590.25h1.664l0.555-1.125h2.219c3.144-1.115,5.533-1.055,9.987-1.125v0.562h0.555a4.3,4.3,0,0,1-1.664,1.126,9.4,9.4,0,0,0,2.219,3.374h1.11q0.555,0.845,1.109,1.688h1.11l1.665,2.25,1.109,0.562v1.126H129.8l0.555,2.25h0.555v2.812h0.555c1.107,3.645.168,7.694,0,11.25h-0.555v-0.562h-0.555l-0.555-2.813h-0.555V610.5h-0.555v-1.125l-1.109-.563v-1.124l-1.11-.563V606l-3.329-2.812v-1.126q-1.388-1.124-2.774-2.25c-2.351-2.41-2.409-4.807-7.213-5.062-1.279-1.238-4.12-.307-5.548,0-3.291,5.945-8.082,11.178-14.426,14.062V606c1.255-1.146.41-1.251,1.11-2.812h0.555l1.11-3.376h0.555v-1.124h0.555A6.286,6.286,0,0,0,98.727,595.875Z"/>
  <path id="Color_Fill_3_copy" data-name="Color Fill 3 copy" class="cls-2" d="M1529.73,645.875a9.621,9.621,0,0,1-4.44-.563V644.75h-1.67v-0.562a0.958,0.958,0,0,1-.55-0.563c3.38,0.05,8.06-.143,10.54-1.125v-0.562h1.11v-0.563h2.78v-0.563h1.1V640.25h1.67c0.18-.375.37-0.75,0.55-1.125h2.22c3.15-1.115,5.54-1.055,9.99-1.125v0.562h0.56a4.368,4.368,0,0,1-1.67,1.126,9.426,9.426,0,0,0,2.22,3.374h1.11l1.11,1.688h1.11c0.55,0.75,1.11,1.5,1.66,2.25l1.11,0.562v1.126h0.56c0.18,0.749.37,1.5,0.55,2.25h0.56v2.812h0.55c1.11,3.645.17,7.694,0,11.25h-0.55v-0.562h-0.56c-0.18-.938-0.37-1.876-0.55-2.813h-0.56V660.5h-0.55v-1.125l-1.11-.563v-1.124l-1.11-.563V656l-3.33-2.812v-1.126c-0.92-.749-1.85-1.5-2.77-2.25-2.36-2.41-2.41-4.807-7.22-5.062-1.28-1.238-4.12-.307-5.55,0-3.29,5.945-8.08,11.178-14.42,14.062V656c1.25-1.146.41-1.251,1.11-2.812h0.55l1.11-3.376h0.56v-1.124h0.55A6.323,6.323,0,0,0,1529.73,645.875Z"/>
  <path id="Color_Fill_4-2" data-name="Color Fill 4" class="cls-2" d="M345.12,655.681v0.537a4.6,4.6,0,0,1,.815,1.076h1.086v0.269a3.587,3.587,0,0,0-2.444.807h-0.544l-0.543.806-1.63.538v0.269h-0.543v0.269h-1.63v0.269c-1.126.305-4.223-.735-4.889-1.076v-0.269h-0.543v-0.268h-1.63v-0.269h-2.173V658.37h-0.815V658.1h-0.815v-0.269a0.474,0.474,0,0,1-.272-0.269c2.051,0.082,3.168.431,4.89-.269a3.438,3.438,0,0,0,.815-2.42c-0.585-.491-0.623-1.254-1.087-1.882H332.9c-0.09-.18-0.181-0.359-0.271-0.538h-0.544l-0.543-.807H331l-0.272-.538H330.18V650.84h-0.543v-0.269h-0.815V650.3h-0.543v-0.269h-0.544c-0.09-.18-0.181-0.359-0.271-0.538l-1.087-.269-0.543-.807h-0.543q-1.088-1.209-2.173-2.42h0.543c0.576,0.84,1.084.567,1.9,1.076l0.272,0.537,2.445,0.807v0.269l1.086,0.269v0.269h0.815V649.5H331v0.269h1.358v0.269l1.9,0.269v0.268H334.8v0.269l1.358,0.269v0.269l0.815,0.269,0.271,0.538h0.544c0.09,0.179.181,0.358,0.271,0.538l1.087,0.806v0.538l0.543,0.269v0.538h0.272l0.271,0.538h1.63v-0.269l1.358-.269q0.543-.672,1.087-1.345c1.252-.687,3.533.224,4.618,0.538H351.1v0.269l4.889-.538v0.269h-0.272v0.269l-0.814.269v0.269h-0.815v0.269h-3.8A26.3,26.3,0,0,0,345.12,655.681Z"/>
  <path id="Color_Fill_4_copy-2" data-name="Color Fill 4 copy" class="cls-2" d="M395.22,701.909v0.538a4.562,4.562,0,0,1,.815,1.076h1.086v0.269a3.59,3.59,0,0,0-2.445.806h-0.543l-0.543.807-1.63.538v0.269h-0.543v0.269h-1.63v0.269c-1.126.3-4.223-.736-4.889-1.076v-0.269h-0.544v-0.269h-1.629v-0.269h-2.173V704.6h-0.815v-0.269h-0.815v-0.268a0.477,0.477,0,0,1-.272-0.269c2.051,0.082,3.168.43,4.89-.269a3.433,3.433,0,0,0,.814-2.42c-0.585-.492-0.622-1.254-1.086-1.883H383c-0.09-.179-0.181-0.358-0.271-0.538h-0.544l-0.543-.806H381.1l-0.272-.538H380.28v-0.269h-0.543V696.8h-0.815v-0.269h-0.543v-0.269h-0.544c-0.09-.179-0.181-0.358-0.271-0.538l-1.087-.269-0.543-.806h-0.543l-2.173-2.42h0.543c0.576,0.84,1.084.566,1.9,1.075l0.272,0.538,2.445,0.807v0.269l1.086,0.269v0.268h0.815v0.269H381.1v0.269h1.358v0.269l1.9,0.269V696.8H384.9v0.269l1.358,0.269v0.269l0.815,0.269,0.271,0.537h0.544c0.09,0.18.181,0.359,0.271,0.538l1.087,0.807V700.3l0.543,0.269V701.1h0.272l0.271,0.537h1.63v-0.269l1.358-.268q0.543-.673,1.087-1.345c1.252-.687,3.533.223,4.618,0.538H401.2v0.269l4.889-.538V700.3h-0.272v0.269l-0.815.269V701.1h-0.814v0.268h-3.8A26.379,26.379,0,0,0,395.22,701.909Z"/>
  <path id="Color_Fill_4_copy_3" data-name="Color Fill 4 copy 3" class="cls-2" d="M1618.22,580.909v0.538a4.4,4.4,0,0,1,.81,1.076h1.09v0.269a3.566,3.566,0,0,0-2.44.806h-0.55l-0.54.807-1.63.538v0.269h-0.54v0.269h-1.63v0.269c-1.13.3-4.23-.736-4.89-1.076v-0.269h-0.55v-0.269h-1.63v-0.269h-2.17V583.6h-0.81v-0.269h-0.82v-0.268a0.462,0.462,0,0,1-.27-0.269c2.05,0.082,3.17.43,4.89-.269a3.41,3.41,0,0,0,.81-2.42c-0.58-.492-0.62-1.254-1.08-1.883H1606c-0.09-.179-0.18-0.358-0.28-0.538h-0.54l-0.54-.806h-0.55l-0.27-.538h-0.54v-0.269h-0.54V575.8h-0.82v-0.269h-0.54v-0.269h-0.54c-0.1-.179-0.19-0.358-0.28-0.538l-1.08-.269c-0.18-.268-0.37-0.537-0.55-0.806h-0.54c-0.72-.807-1.45-1.614-2.17-2.42h0.54c0.58,0.84,1.09.566,1.9,1.075l0.27,0.538c0.82,0.269,1.63.538,2.45,0.807v0.269c0.36,0.089.72,0.179,1.09,0.269v0.268h0.81v0.269h0.81v0.269h1.36v0.269l1.9,0.269V575.8h0.55v0.269l1.36,0.269v0.269l0.81,0.269,0.27,0.537h0.55l0.27,0.538,1.08,0.807V579.3c0.18,0.089.37,0.179,0.55,0.269V580.1h0.27l0.27,0.537h1.63v-0.269l1.36-.268,1.08-1.345c1.26-.687,3.54.223,4.62,0.538h2.18v0.269l4.88-.538V579.3h-0.27v0.269l-0.81.269V580.1h-0.82v0.268h-3.8A26.334,26.334,0,0,0,1618.22,580.909Z"/>
  <path id="Color_Fill_3-2" data-name="Color Fill 3" class="cls-2" d="M286.252,661.425a4.648,4.648,0,0,1-2.146-.273v-0.273h-0.8v-0.274a0.468,0.468,0,0,1-.268-0.273,16.138,16.138,0,0,0,5.1-.546v-0.273h0.536v-0.274h1.341v-0.273h0.536v-0.273h0.805c0.089-.182.179-0.364,0.268-0.547h1.073a13.681,13.681,0,0,1,4.827-.546v0.273h0.268a2.069,2.069,0,0,1-.8.547,4.574,4.574,0,0,0,1.072,1.639h0.537l0.536,0.82h0.536l0.8,1.092L301,662.245v0.546h0.268q0.135,0.546.269,1.093h0.268v1.366h0.268c0.535,1.77.081,3.737,0,5.464h-0.268v-0.273h-0.268q-0.135-.683-0.269-1.366H301v-0.546h-0.268v-0.547l-0.536-.273v-0.546l-0.537-.274v-0.546l-1.609-1.366V664.43l-1.341-1.093c-1.136-1.17-1.164-2.334-3.486-2.458-0.618-.6-1.991-0.15-2.682,0a15.553,15.553,0,0,1-6.972,6.83v-1.366c0.606-.557.2-0.608,0.536-1.366h0.268l0.537-1.64h0.268v-0.546h0.268A3.056,3.056,0,0,0,286.252,661.425Z"/>
  <path id="Color_Fill_3_copy_2" data-name="Color Fill 3 copy 2" class="cls-2" d="M1483.25,701.425a4.61,4.61,0,0,1-2.14-.273v-0.273h-0.81v-0.274a0.489,0.489,0,0,1-.27-0.273,16.143,16.143,0,0,0,5.1-.546v-0.273h0.54v-0.274h1.34v-0.273h0.53v-0.273h0.81l0.27-.547h1.07a13.681,13.681,0,0,1,4.83-.546v0.273h0.26a2.054,2.054,0,0,1-.8.547,4.692,4.692,0,0,0,1.07,1.639h0.54c0.18,0.273.36,0.546,0.53,0.82h0.54c0.27,0.364.54,0.728,0.8,1.092l0.54,0.274v0.546h0.27l0.27,1.093h0.27v1.366h0.26c0.54,1.77.09,3.737,0,5.464h-0.26v-0.273h-0.27l-0.27-1.366H1498v-0.546h-0.27v-0.547c-0.18-.091-0.35-0.182-0.53-0.273v-0.546l-0.54-.274v-0.546c-0.54-.455-1.07-0.911-1.61-1.366V704.43c-0.45-.364-0.89-0.728-1.34-1.093-1.14-1.17-1.16-2.334-3.49-2.458-0.61-.6-1.99-0.15-2.68,0a15.529,15.529,0,0,1-6.97,6.83v-1.366c0.61-.557.2-0.608,0.54-1.366h0.26l0.54-1.64h0.27v-0.546h0.27A3.049,3.049,0,0,0,1483.25,701.425Z"/>
  <path id="Color_Fill_3_copy-2" data-name="Color Fill 3 copy" class="cls-2" d="M359.918,628.711a4.648,4.648,0,0,1-2.146-.273v-0.274h-0.8v-0.273a0.474,0.474,0,0,1-.268-0.273,16.136,16.136,0,0,0,5.1-.547V626.8h0.536v-0.273h1.341v-0.273h0.537v-0.273h0.8l0.268-.547h1.073a13.661,13.661,0,0,1,4.827-.546v0.273h0.268a2.056,2.056,0,0,1-.8.546,4.559,4.559,0,0,0,1.073,1.64h0.536q0.268,0.409.536,0.819h0.537l0.8,1.093,0.537,0.273v0.547h0.268q0.133,0.546.268,1.093h0.268v1.366h0.268c0.535,1.77.082,3.737,0,5.464h-0.268v-0.273H375.2q-0.135-.684-0.268-1.366h-0.268v-0.547H374.4v-0.546L373.863,635v-0.547l-0.536-.273v-0.546l-1.609-1.366v-0.547l-1.341-1.093c-1.137-1.17-1.165-2.335-3.487-2.459-0.618-.6-1.991-0.149-2.681,0A15.558,15.558,0,0,1,357.236,635v-1.366c0.607-.557.2-0.608,0.536-1.366h0.269q0.267-.821.536-1.64h0.268v-0.546h0.268A3.056,3.056,0,0,0,359.918,628.711Z"/>
  <path class="cls-2" d="M-47.093,834.128s160.557-151.757,286-133.277,194.228,66.315,312.422,80.426,252.4-30.756,341.138-63.192,183.9-61.827,289.449-27.574,236.61,56.3,236.61,56.3,91.33,9.945,203.31-41.362,134.39-51.7,134.39-51.7l39.05,247.021-55.13,217.144-58.58,49.41-1742.446-1.15s-50.012-255.889-44.8-267.7"/>
  <path class="cls-3" d="M-58.579,859.4s152.833-73.855,260.735-68.936,284.855,40.213,284.855,40.213,140.419,13.364,282.558-21.83,191.818,2.3,191.818,2.3l243.5,67.787s247.03,17.71,383.64-45.957S1725.21,805.4,1725.21,805.4l-36.75,195.316-18.38,127.54-1803.319,18.38,31.013-222.9"/>
  <path class="cls-4" d="M-21.824,875.489S200.8,900.29,322.76,906.511s283.8,2.721,325.057,2.3,167.021-34.281,246.951-49.4,214.262,8,307.832,34.468,346.14-11.2,427.28-19.532,95.33,26.426,95.33,26.426l8.04,139.024L562.819,1154.68l-662.748-64.34"/>
  <path class="cls-5" d="M-28.715,981.191s231.27,10,307.827-8.042S587.5,960.058,712.139,976.6s340.471,1.734,381.341-21.83,171.34-4.45,263.03,32.17,328.5-6.893,328.5-6.893l63.18,87.317-24.12,58.6L48.242,1145.49l-120.6-102.26"/>
  <path class="cls-6" d="M-12.635,1058.17S167.8,1004.29,338.84,1023.7s315.2-17.22,415.8-29.87,227.423,13.04,379.043,43.66,145.04-41.878,320.46-43.66,294.75,92.55,318.17,95.36S1544.88,1188,1544.88,1188L-80.4,1182.26l16.081-116.05"/>
  <path id="Color_Fill_1" data-name="Color Fill 1" class="cls-3" d="M173.951,747.44c-3.411-.005-5.183,1.013-8.783,1.063a6.266,6.266,0,0,0-6.387-2.657,5.11,5.11,0,0,1-2.662.531c-2.111-.415-3.52-1.066-6.121-1.062-0.886,1.609-1.794,3.111-4.258,3.188-1.356-2.43-2.319-6.677-5.057-7.705-1.277-.479-3.4.366-4.791-0.266L133.5,737.61c-2.21-1.481-5.169-.867-7.718-0.266v0.532c-1.031,1.738.76,3.485,1.33,4.516,2.557,4.622,4.518,5.268,8.517,8.236l3.194,3.454c2.912,2.163,6.272,4.229,9.315,6.11,3.413,2.11,8.035,2.706,11.444,4.782,2.421,1.475,5.022,2.912,7.452,4.517,1.2,0.795,2.322,2.061,3.726,2.657,3.82,1.621,8.586,1.778,12.243,3.453a0.911,0.911,0,0,1-.266.532,4.217,4.217,0,0,1-2.129.265c-2.237-1.647-4.416-.009-6.388.532-1.681.461-3.685-.287-4.79-0.532-2.5-.554-5.923.134-7.719,0.532v1.328a1.8,1.8,0,0,1,.533,1.329,4.99,4.99,0,0,1-3.194-.532c-2.2-.717-2.382-3.251-3.726-4.782a0.908,0.908,0,0,0-.532.266c-2.3.87-1.023,3.21-2.928,3.719-1.455-1.455-3.8-1.485-5.589-2.657-2.114-1.381-3.251-5.764-4.525-7.97a0.914,0.914,0,0,0-.532.266c-1.773.914-1.459,4.1-2.129,6.11a4.192,4.192,0,0,1-1.863.532c-1.405-.926-3.753-0.574-4.791-1.86-2.138-3.013.284-10.6-5.057-11.158q-0.132.4-.266,0.8c-0.886,1.406.8,8.16,0.8,10.892q0.664,15.542,1.331,31.084a18.622,18.622,0,0,1-5.057.266c-1.508,1.029-8.361.021-9.049-.8-1.185-1.59.8-7.772,0.8-10.893,0.007-6.379.047-12.53,0-18.6-0.033-4.285.137-8.942-.532-12.487h-1.065a40.41,40.41,0,0,0-3.46,5.58c-1.716,4.054-2.418,7.352-5.855,9.564-0.837.538-3.6,1.844-5.056,1.328-0.965-.342-1.33-1.143-2.662-0.265-3.213,1.21-1.981,3.906-8.251,2.656-0.33-.831-0.45-1.754-1.331-2.125a1.8,1.8,0,0,0-1.065-.266c-2.764,2.294-5.584,5.4-10.646,4.517a31.791,31.791,0,0,1,0-4.782,4.721,4.721,0,0,0-2.661-.532c-1.126.809-3.247,1.053-5.057,1.063v-0.266H68.025c-0.565-6.748,8.518-6.757,12.775-9.564,9.856-6.5,18.338-14.815,27.679-21.785,2.774-2.07,7.87-4.8,8.251-9.033a4.834,4.834,0,0,1-1.065-.8c-6.272-.078-6.809,3.386-9.581,6.641-0.58.682-1.753,0.959-2.4,1.6-4.016.3-5.116-1.771-9.316-1.86-1.91,1.573-3.922,2.722-5.589,4.516-3.722,0-4.289-2.347-6.92-3.188a8.39,8.39,0,0,0-3.46.266,7.606,7.606,0,0,1-3.726-.532,6.645,6.645,0,0,1-.266-2.125,0.958,0.958,0,0,0,.266-0.531c3.974-2.215,8.544-3.148,13.041-5.048s7.965-5.543,11.71-8.236c4.593-3.3,9.143-5.812,12.509-10.361,2.245-3.034,6.434-6.684,6.654-11.424H118.06c-1.76,1.632-4.319,2.084-6.387,3.453-1.565,1.037-2.927,2.724-4.525,3.72-1.52.948-3.3,1.19-4.524,2.391-0.909-.438-2.734-1.365-3.46-1.063-2.824.958-3.894,3.572-7.718,3.72-1.354-2.421-2.436-3.753-5.589-2.391v-1.063c0.662-.928.543-2.647,1.331-3.454,1.019-1.045,2.783-1.544,3.992-2.391,2.842-1.991,5.763-4.275,8.783-6.11,2-1.214,4.512-1.573,6.387-2.923,2.882-2.074,7.61-10.642,8.25-14.878h-0.266v0.266c-2.318,2.171-4.144,4.332-7.984,5.048-1.7.317-1.761-1.313-3.46-.8-2.164.657-2.023,2.361-5.855,2.391-1.137-3.611-4.944-3.032-5.855-5.314h0.266c0.812-2.3,5.576-3.917,7.452-5.579q3.194-3.319,6.387-6.642a51.369,51.369,0,0,0,11.977-13.283c1.365-2.158,5.1-10.593,7.452-10.893,1.992,4.3,2.9,11.974,5.323,15.675a34.972,34.972,0,0,0,7.718,7.97l3.46,3.719c5.02,3.777,8.634,7,16.235,8.5v0.266h-0.266c-0.768.981-2.966,2.629-5.057,2.125-0.528-.127-1.114-0.8-2.129-0.531-3.917,1.04-5.252,2.089-10.38,1.86V690.32c0.516-.443.444-0.382,0.533-1.329a4.159,4.159,0,0,0-2.13-1.062c-4.987,3.6-4.336-3.049-8.25-3.72a0.957,0.957,0,0,1-.532.266v1.86c1.865,2.3,2.528,5.593,4.258,7.97,1.461,2.009,4.063,3.334,6.121,4.782,1.735,1.221,3.291,3.1,5.057,4.251,2.35,1.535,5.194,1.782,7.984,2.922,2.306,0.943,4.217,2.657,6.654,3.454l4.791,0.8v0.266h-0.267c-1.417,2.167-8.136,3.859-11.976,2.391-1.748-.668-1.715-2.381-3.992-2.657-0.983,1.691-1.638,6.926-3.194,7.705-1.073-.845-2.743-0.576-3.992-1.329-0.53-.319-0.45-1.058-0.8-1.594-1.807-2.777-3.468-4-7.984-3.453-0.5-.818-4.038-4.162-4.791-3.454-0.56.48-.532,0.775-0.532,1.859q1.065,2.923,2.129,5.845c2.069,3.4,6.279,9.077,9.581,11.159,8.671,5.464,19.574,8.243,27.946,13.815C168.483,742.562,173.355,744.491,173.951,747.44Z"/>
  <path id="Color_Fill_1_copy_3" data-name="Color Fill 1 copy 3" class="cls-3" d="M1639.95,797.44c-3.41-.005-5.18,1.013-8.78,1.063a6.269,6.269,0,0,0-6.39-2.657,5.1,5.1,0,0,1-2.66.531c-2.11-.415-3.52-1.066-6.12-1.062-0.89,1.609-1.8,3.111-4.26,3.188-1.36-2.43-2.32-6.677-5.06-7.705-1.27-.479-3.39.366-4.79-0.266-0.8-.974-1.59-1.948-2.39-2.922-2.21-1.481-5.17-.867-7.72-0.266v0.532c-1.03,1.738.76,3.485,1.33,4.516,2.56,4.622,4.52,5.268,8.52,8.236,1.06,1.151,2.13,2.3,3.19,3.454,2.91,2.163,6.27,4.229,9.31,6.11,3.42,2.11,8.04,2.706,11.45,4.782,2.42,1.475,5.02,2.912,7.45,4.517,1.21,0.795,2.32,2.061,3.73,2.657,3.82,1.621,8.58,1.778,12.24,3.453a0.894,0.894,0,0,1-.27.532,4.214,4.214,0,0,1-2.13.265c-2.23-1.647-4.41-.009-6.38.532-1.68.461-3.69-.287-4.79-0.532-2.51-.554-5.93.134-7.72,0.532v1.328a1.787,1.787,0,0,1,.53,1.329,4.974,4.974,0,0,1-3.19-.532c-2.2-.717-2.38-3.251-3.73-4.782a0.881,0.881,0,0,0-.53.266c-2.3.87-1.02,3.21-2.93,3.719-1.45-1.455-3.8-1.485-5.59-2.657-2.11-1.381-3.25-5.764-4.52-7.97a0.881,0.881,0,0,0-.53.266c-1.78.914-1.46,4.1-2.13,6.11a4.2,4.2,0,0,1-1.87.532c-1.4-.926-3.75-0.574-4.79-1.86-2.14-3.013.29-10.6-5.05-11.158l-0.27.8c-0.89,1.406.8,8.16,0.8,10.892q0.66,15.542,1.33,31.084a18.65,18.65,0,0,1-5.06.266c-1.51,1.029-8.36.021-9.05-.8-1.18-1.59.8-7.772,0.8-10.893,0.01-6.379.05-12.53,0-18.6-0.03-4.285.14-8.942-.53-12.487h-1.07a40.506,40.506,0,0,0-3.46,5.58c-1.71,4.054-2.41,7.352-5.85,9.564-0.84.538-3.6,1.844-5.06,1.328-0.96-.342-1.33-1.143-2.66-0.265-3.21,1.21-1.98,3.906-8.25,2.656-0.33-.831-0.45-1.754-1.33-2.125a1.788,1.788,0,0,0-1.06-.266c-2.77,2.294-5.59,5.4-10.65,4.517a31.778,31.778,0,0,1,0-4.782,4.723,4.723,0,0,0-2.66-.532c-1.13.809-3.25,1.053-5.06,1.063v-0.266h-0.27c-0.56-6.748,8.52-6.757,12.78-9.564,9.86-6.5,18.34-14.815,27.68-21.785,2.77-2.07,7.87-4.8,8.25-9.033a4.735,4.735,0,0,1-1.06-.8c-6.28-.078-6.81,3.386-9.59,6.641-0.58.682-1.75,0.959-2.39,1.6-4.02.3-5.12-1.771-9.32-1.86-1.91,1.573-3.92,2.722-5.59,4.516-3.72,0-4.28-2.347-6.92-3.188a8.412,8.412,0,0,0-3.46.266,7.585,7.585,0,0,1-3.72-.532,6.576,6.576,0,0,1-.27-2.125,0.91,0.91,0,0,0,.27-0.531c3.97-2.215,8.54-3.148,13.04-5.048s7.96-5.543,11.71-8.236c4.59-3.3,9.14-5.812,12.51-10.361,2.24-3.034,6.43-6.684,6.65-11.424h-0.53c-1.76,1.632-4.32,2.084-6.39,3.453-1.56,1.037-2.92,2.724-4.52,3.72-1.52.948-3.3,1.19-4.53,2.391-0.91-.438-2.73-1.365-3.46-1.063-2.82.958-3.89,3.572-7.71,3.72-1.36-2.421-2.44-3.753-5.59-2.391v-1.063c0.66-.928.54-2.647,1.33-3.454,1.02-1.045,2.78-1.544,3.99-2.391,2.84-1.991,5.76-4.275,8.78-6.11,2-1.214,4.52-1.573,6.39-2.923,2.88-2.074,7.61-10.642,8.25-14.878h-0.27v0.266c-2.31,2.171-4.14,4.332-7.98,5.048-1.7.317-1.76-1.313-3.46-.8-2.16.657-2.02,2.361-5.86,2.391-1.13-3.611-4.94-3.032-5.85-5.314h0.27c0.81-2.3,5.57-3.917,7.45-5.579l6.39-6.642a51.342,51.342,0,0,0,11.97-13.283c1.37-2.158,5.1-10.593,7.45-10.893,2,4.3,2.91,11.974,5.33,15.675a34.648,34.648,0,0,0,7.72,7.97q1.725,1.86,3.46,3.719c5.02,3.777,8.63,7,16.23,8.5v0.266h-0.27c-0.76.981-2.96,2.629-5.05,2.125-0.53-.127-1.12-0.8-2.13-0.531-3.92,1.04-5.25,2.089-10.38,1.86V740.32c0.51-.443.44-0.382,0.53-1.329a4.143,4.143,0,0,0-2.13-1.062c-4.99,3.6-4.34-3.049-8.25-3.72a0.938,0.938,0,0,1-.53.266v1.86c1.86,2.3,2.53,5.593,4.26,7.97,1.46,2.009,4.06,3.334,6.12,4.782,1.73,1.221,3.29,3.1,5.05,4.251,2.35,1.535,5.2,1.782,7.99,2.922,2.3,0.943,4.22,2.657,6.65,3.454,1.6,0.266,3.2.531,4.79,0.8v0.266h-0.26c-1.42,2.167-8.14,3.859-11.98,2.391-1.75-.668-1.71-2.381-3.99-2.657-0.98,1.691-1.64,6.926-3.2,7.705-1.07-.845-2.74-0.576-3.99-1.329-0.53-.319-0.45-1.058-0.8-1.594-1.8-2.777-3.46-4-7.98-3.453-0.5-.818-4.04-4.162-4.79-3.454-0.56.48-.53,0.775-0.53,1.859l2.13,5.845c2.06,3.4,6.27,9.077,9.58,11.159,8.67,5.464,19.57,8.243,27.94,13.815C1634.48,792.562,1639.36,794.491,1639.95,797.44Z"/>
  <path id="Color_Fill_1_copy_4" data-name="Color Fill 1 copy 4" class="cls-3" d="M1571.34,817.528c-1.6.535-2.27,1.3-3.96,1.887a3.092,3.092,0,0,0-3.42-.253,2.511,2.511,0,0,1-1.17.671,12.679,12.679,0,0,0-3.04.461,2.367,2.367,0,0,1-1.5,2.182c-1.02-.938-2.15-2.8-3.6-2.856-0.68-.026-1.54.708-2.29,0.629l-1.59-1.008c-1.28-.354-2.57.4-3.67,1.09,0.03,0.084.05,0.168,0.08,0.252-0.21.986,0.91,1.532,1.34,1.931,1.94,1.789,2.96,1.786,5.32,2.563,0.68,0.378,1.36.756,2.05,1.134,1.71,0.567,3.62,1.017,5.34,1.429,1.94,0.463,4.21.017,6.14,0.465,1.37,0.317,2.83.589,4.22,0.967a12.325,12.325,0,0,0,2.18.672c2.05,0.167,4.31-.509,6.3-0.291a0.566,0.566,0,0,1-.04.294,2.13,2.13,0,0,1-.96.461c-1.31-.429-2.08.691-2.92,1.258a4.993,4.993,0,0,1-2.33.5,9.866,9.866,0,0,0-3.55,1.468l0.21,0.63a0.917,0.917,0,0,1,.47.545,2.467,2.467,0,0,1-1.59.252c-1.15.006-1.64-1.167-2.51-1.68a0.508,0.508,0,0,0-.21.209c-0.94.775,0.03,1.684-.78,2.225-0.92-.461-2.02-0.106-3.05-0.379-1.22-.322-2.45-2.221-3.4-3.066a0.417,0.417,0,0,0-.2.21c-0.69.713-.04,2.176-0.03,3.232a2.2,2.2,0,0,1-.79.546c-0.81-.218-1.86.319-2.55-0.127-1.48-1.092-1.55-5.069-4.15-4.493v0.419c-0.19.807,1.67,3.744,2.11,5.038q2.775,7.263,5.56,14.527a9.093,9.093,0,0,1-2.33.922c-0.55.726-3.93,1.327-4.38,1.048-0.81-.567-0.86-3.81-1.36-5.29-1.01-3.025-1.97-5.947-2.95-8.816a39.5,39.5,0,0,0-2.24-5.836c-0.16.056-.33,0.112-0.5,0.168a20.37,20.37,0,0,0-.74,3.19c-0.16,2.193.04,3.867-1.23,5.457a3.93,3.93,0,0,1-2.16,1.426c-0.51-.01-0.81-0.332-1.3.293-1.31,1.081-.31,2.164-3.45,2.56a1.547,1.547,0,0,0-.96-0.8,0.908,0.908,0,0,0-.55.041c-0.93,1.523-1.76,3.441-4.28,3.819a15.171,15.171,0,0,1-.76-2.267,2.33,2.33,0,0,0-1.34.167,4.825,4.825,0,0,1-2.2,1.3c-0.02-.042-0.03-0.084-0.05-0.126l-0.12.042c-1.34-3.11,2.93-4.546,4.48-6.547,3.6-4.635,6.27-9.912,9.55-14.689,0.97-1.418,2.93-3.517,2.44-5.582a2.359,2.359,0,0,1-.63-0.21c-2.96.952-2.66,2.678-3.45,4.658-0.16.415-.67,0.731-0.87,1.133-1.84.778-2.68-.033-4.67,0.586a26.231,26.231,0,0,0-1.91,3.022c-1.75.588-2.39-.437-3.76-0.421a4.1,4.1,0,0,0-1.58.671,3.745,3.745,0,0,1-1.84.335,3.472,3.472,0,0,1-.46-0.966,0.478,0.478,0,0,0,.04-0.294c1.52-1.676,3.52-2.838,5.33-4.447s2.86-3.883,4.19-5.75c1.63-2.289,3.37-4.2,4.23-6.882,0.58-1.792,1.96-4.182,1.31-6.464-0.08.028-.16,0.056-0.25,0.084-0.56,1.051-1.69,1.668-2.45,2.643-0.57.738-.94,1.753-1.53,2.476a11.915,11.915,0,0,0-1.75,1.847,3.3,3.3,0,0,0-1.79.041c-1.18.9-1.27,2.307-3.04,2.979-1.02-.934-1.74-1.395-3.01-0.253-0.05-.168-0.11-0.336-0.17-0.5,0.17-.544-0.16-1.34.08-1.847a12.731,12.731,0,0,1,1.5-1.762c1.02-1.392,2.02-2.935,3.15-4.281,0.75-.89,1.87-1.456,2.54-2.391,1.02-1.438,1.89-6.244,1.51-8.353l-0.12.042c0.01,0.042.03,0.084,0.04,0.126-0.74,1.394-1.26,2.706-2.95,3.651-0.75.417-1.04-.345-1.75,0.167-0.92.652-.58,1.438-2.37,2.056-1.11-1.533-2.81-.659-3.6-1.6l0.12-.042c0.02-1.217,2-2.735,2.62-3.819l1.95-4.155a25.513,25.513,0,0,0,3.51-8.184c0.3-1.238.72-5.825,1.77-6.338,1.62,1.727,3.27,5.219,5,6.593a17.364,17.364,0,0,0,4.89,2.562l2.22,1.218c2.96,1,5.17,1.958,8.98,1.473,0.01,0.042.03,0.084,0.04,0.126l-0.12.042a2.8,2.8,0,0,1-2.04,1.8,1.608,1.608,0,0,0-1.09.084c-1.67,1.11-2.13,1.817-4.58,2.517-0.01-.042-0.03-0.084-0.04-0.126a0.631,0.631,0,0,0,.04-0.714,2.061,2.061,0,0,0-1.17-.168c-1.77,2.492-2.53-.763-4.47-0.464a0.457,0.457,0,0,1-.21.21l0.3,0.882c1.24,0.8,2.07,2.253,3.26,3.107a12.438,12.438,0,0,0,3.64,1.3c1.01,0.3,2.04.95,3.05,1.218,1.35,0.358,2.73.027,4.22,0.128,1.23,0.084,2.4.6,3.68,0.589l2.37-.377c0.02,0.042.03,0.084,0.05,0.126-0.05.014-.09,0.028-0.13,0.042-0.32,1.251-3.21,3.111-5.25,3.02-0.93-.041-1.18-0.858-2.3-0.63-0.19.956,0.33,3.541-.27,4.156-0.64-.232-1.38.159-2.09,0a2.087,2.087,0,0,1-.63-0.63c-1.29-1.032-2.26-1.349-4.3-.38-0.36-.309-2.56-1.336-2.8-0.882a0.913,0.913,0,0,0,.05.965c0.64,0.812,1.28,1.624,1.93,2.436,1.51,1.287,4.39,3.314,6.27,3.78,4.94,1.225,10.51.824,15.33,2.147C1568,816.076,1570.59,816.224,1571.34,817.528Z"/>
  <path id="Color_Fill_1_copy" data-name="Color Fill 1 copy" class="cls-3" d="M383.575,792.182c-1.977-.56-3.172-0.259-5.267-0.819a3.775,3.775,0,0,0-3.27-2.584,3.085,3.085,0,0,1-1.63-.126,15.636,15.636,0,0,0-3.376-1.617c-0.777.789-1.549,1.511-2.99,1.153-0.389-1.63-.254-4.25-1.674-5.294-0.662-.486-2.029-0.343-2.734-0.936l-0.912-2.086c-1.04-1.22-2.856-1.348-4.432-1.415l-0.087.308c-0.882.839-.129,2.145,0.034,2.836,0.727,3.1,1.759,3.793,3.593,6.167l1.288,2.525c1.335,1.73,2.946,3.477,4.4,5.065,1.635,1.781,4.217,2.882,5.855,4.643,1.163,1.25,2.436,2.509,3.583,3.836a15.177,15.177,0,0,0,1.727,2.15c1.95,1.564,4.688,2.434,6.535,4a0.547,0.547,0,0,1-.241.264,2.533,2.533,0,0,1-1.278-.193c-1.028-1.321-2.559-.728-3.791-0.736a6.141,6.141,0,0,1-2.691-1.091,12.123,12.123,0,0,0-4.563-.953q-0.108.385-.217,0.771a1.075,1.075,0,0,1,.092.857,3.007,3.007,0,0,1-1.765-.83c-1.157-.775-0.85-2.274-1.38-3.382a0.555,0.555,0,0,0-.352.067c-1.474.13-1.117,1.7-2.305,1.679-0.606-1.082-1.959-1.481-2.807-2.454-1-1.146-.943-3.874-1.321-5.361a0.553,0.553,0,0,0-.352.067c-1.178.241-1.517,2.142-2.233,3.2a2.539,2.539,0,0,1-1.168,0c-0.663-.767-2.082-0.946-2.474-1.862-0.747-2.1,1.9-6.1-1.109-7.3l-0.285.419c-0.743.67-.871,4.862-1.316,6.446q-2.154,9.122-4.307,18.243a11.264,11.264,0,0,1-2.976-.672c-1.042.35-4.851-1.354-5.117-1.941-0.427-1.116,1.731-4.377,2.243-6.186,1.046-3.7,2.074-7.258,3.038-10.784a47.106,47.106,0,0,0,1.732-7.328l-0.618-.174a24.375,24.375,0,0,0-2.918,2.67c-1.657,2.071-2.6,3.869-4.957,4.59-0.574.175-2.39,0.481-3.15-.056-0.5-.356-0.584-0.88-1.5-0.589-2.061.177-1.786,1.942-5.218,0.193a1.856,1.856,0,0,0-.424-1.45,1.088,1.088,0,0,0-.574-0.328c-1.978.878-4.121,2.219-6.912,0.88a19.155,19.155,0,0,1,.782-2.774,2.845,2.845,0,0,0-1.457-.742,5.9,5.9,0,0,1-3.106-.21c0.015-.052.029-0.1,0.044-0.154l-0.155-.044c0.775-4,6.044-2.527,8.971-3.459,6.777-2.159,13.054-5.6,19.61-8.111,1.946-.747,5.348-1.5,6.26-3.89a2.847,2.847,0,0,1-.487-0.636c-3.625-1.07-4.5.852-6.641,2.286-0.448.3-1.173,0.27-1.65,0.533-2.378-.479-2.677-1.862-5.1-2.6a31.947,31.947,0,0,0-3.979,1.706c-2.159-.607-2.1-2.062-3.491-2.979a5.068,5.068,0,0,0-2.05-.412,4.574,4.574,0,0,1-2.074-.916,4.016,4.016,0,0,1,.193-1.276,0.581,0.581,0,0,0,.241-0.265c2.666-.635,5.469-0.429,8.387-0.8s5.524-1.913,8.136-2.863c3.2-1.165,6.251-1.877,8.947-3.965,1.8-1.392,4.822-2.824,5.724-5.537l-0.308-.087c-1.288.659-2.845,0.5-4.268,0.959-1.077.345-2.143,1.1-3.232,1.418-1.037.3-2.107,0.151-3.014,0.647-0.456-.4-1.362-1.238-1.833-1.182-1.794.1-2.842,1.436-5.083,0.9-0.39-1.625-.8-2.574-2.85-2.3,0.057-.206.115-0.411,0.173-0.617,0.536-.429.748-1.445,1.336-1.785a16.175,16.175,0,0,1,2.706-.734c1.973-.691,4.04-1.538,6.091-2.109,1.357-.377,2.874-0.174,4.181-0.651,2.01-.732,6.152-4.927,7.215-7.279l-0.154-.044c-0.014.052-.029,0.1-0.043,0.154-1.7.881-3.111,1.835-5.455,1.623-1.036-.094-0.807-1.049-1.876-1.027-1.362.027-1.559,1.038-3.786,0.43-0.07-2.28-2.371-2.566-2.527-4.038l0.154,0.043c0.846-1.2,3.874-1.36,5.233-2.017l4.789-2.808a30.934,30.934,0,0,0,9.115-5.747c1.144-1.028,4.686-5.31,6.1-5.1,0.452,2.821-.272,7.419.526,9.96a21.062,21.062,0,0,0,3.173,5.882l1.4,2.722c2.294,3.011,3.863,5.47,8.025,7.583-0.014.051-.029,0.1-0.043,0.154l-0.154-.044a3.4,3.4,0,0,1-3.28.407,1.945,1.945,0,0,0-1.148-.656c-2.441-.037-3.386.353-6.323-0.618,0.015-.051.029-0.1,0.044-0.154a0.753,0.753,0,0,0,.525-0.683,2.493,2.493,0,0,0-1.061-.964c-3.48,1.272-2.016-2.477-4.176-3.5a0.581,0.581,0,0,1-.352.067q-0.153.54-.3,1.078c0.7,1.64.553,3.657,1.167,5.318,0.519,1.4,1.812,2.6,2.768,3.773,0.807,0.992,1.4,2.334,2.238,3.291,1.112,1.275,2.721,1.882,4.153,3,1.183,0.924,2.011,2.23,3.294,3.09l2.648,1.245c-0.015.051-.029,0.1-0.044,0.154l-0.154-.043c-1.176,1.025-5.349.908-7.336-.571-0.9-.672-0.6-1.66-1.881-2.192-0.846.819-2.081,3.748-3.11,3.946-0.485-.665-1.5-0.783-2.1-1.423a2.5,2.5,0,0,1-.2-1.055c-0.6-1.906-1.358-2.885-4.066-3.307-0.154-.555-1.661-3.073-2.213-2.785a1.119,1.119,0,0,0-.613.991q0.14,1.869.28,3.737c0.643,2.311,2.158,6.289,3.733,8.036,4.135,4.585,10,7.978,13.948,12.577C381.2,788.46,383.711,790.375,383.575,792.182Z"/>
  <path id="Color_Fill_1_copy_5" data-name="Color Fill 1 copy 5" class="cls-2" d="M1411.34,703.087c-1.91.763-2.67,1.73-4.67,2.567a3.778,3.778,0,0,0-4.17-.05,3.092,3.092,0,0,1-1.36.895,15.662,15.662,0,0,0-3.67.781c-0.13,1.1-.3,2.142-1.66,2.739-1.3-1.054-2.8-3.212-4.56-3.171-0.82.019-1.81,0.967-2.73,0.927-0.67-.365-1.34-0.73-2-1.1-1.57-.331-3.08.676-4.37,1.585l0.12,0.3c-0.19,1.2,1.2,1.778,1.75,2.226,2.47,2.009,3.71,1.93,6.61,2.691,0.86,0.4,1.71.808,2.57,1.213,2.11,0.555,4.45.955,6.58,1.323,2.38,0.412,5.1-.293,7.47.1,1.68,0.281,3.46.5,5.18,0.851a15.107,15.107,0,0,0,2.68.648c2.5,0.048,5.2-.935,7.62-0.82a0.545,0.545,0,0,1-.03.357,2.62,2.62,0,0,1-1.13.627c-1.62-.419-2.47.986-3.45,1.732a6.193,6.193,0,0,1-2.8.779,12.131,12.131,0,0,0-4.2,2.031l0.3,0.742a1.1,1.1,0,0,1,.6.623,3.01,3.01,0,0,1-1.91.421c-1.39.092-2.06-1.283-3.15-1.836a0.5,0.5,0,0,0-.24.268c-1.09,1,.15,2.024-0.8,2.737-1.14-.487-2.46.023-3.72-0.23-1.5-.3-3.12-2.492-4.32-3.439a0.5,0.5,0,0,0-.24.268c-0.79.909,0.1,2.623,0.18,3.894a2.516,2.516,0,0,1-.92.716c-0.99-.2-2.23.523-3.1,0.037-1.87-1.2-2.22-5.988-5.33-5.1l0.03,0.506c-0.18.985,2.28,4.382,2.89,5.909q3.87,8.538,7.73,17.077a11.182,11.182,0,0,1-2.77,1.285c-0.61.914-4.67,1.889-5.23,1.587-1.02-.623-1.31-4.523-2-6.268-1.43-3.568-2.79-7.016-4.18-10.4a46.925,46.925,0,0,0-3.11-6.861c-0.19.08-.39,0.16-0.59,0.239a23.415,23.415,0,0,0-.68,3.9c-0.05,2.652.3,4.654-1.13,6.662-0.34.489-1.59,1.84-2.52,1.879-0.62.025-1-.34-1.55,0.449-1.53,1.4-.23,2.629-4.02,3.339a1.84,1.84,0,0,0-1.22-.889,1.075,1.075,0,0,0-.65.09c-1.03,1.9-1.91,4.274-4.94,4.917a19.331,19.331,0,0,1-1.07-2.673,2.855,2.855,0,0,0-1.61.3,5.905,5.905,0,0,1-2.59,1.731l-0.06-.149-0.15.06c-1.83-3.645,3.25-5.691,5-8.217,4.04-5.848,6.92-12.4,10.57-18.4,1.09-1.78,3.32-4.453,2.59-6.9a2.893,2.893,0,0,1-.78-0.206c-3.52,1.366-3.04,3.423-3.86,5.865-0.17.511-.77,0.93-0.98,1.429-2.18,1.073-3.26.16-5.63,1.053a32.787,32.787,0,0,0-2.11,3.781c-2.08.838-2.92-.349-4.58-0.228a5.145,5.145,0,0,0-1.88.926,4.542,4.542,0,0,1-2.2.54,3.993,3.993,0,0,1-.62-1.128,0.726,0.726,0,0,0,.03-0.357c1.72-2.131,4.06-3.679,6.15-5.752s3.21-4.887,4.7-7.234c1.82-2.878,3.8-5.3,4.66-8.6,0.58-2.2,2.1-5.182,1.15-7.881-0.09.04-.19,0.08-0.29,0.119-0.62,1.308-1.95,2.136-2.8,3.366-0.64.931-1.02,2.18-1.69,3.1-0.64.871-1.58,1.406-1.99,2.353-0.61-.041-1.84-0.149-2.18.183-1.36,1.17-1.37,2.871-3.47,3.813-1.31-1.049-2.21-1.551-3.67-.081-0.08-.2-0.16-0.4-0.23-0.594,0.16-.667-0.3-1.6-0.04-2.23a16.382,16.382,0,0,1,1.7-2.233c1.14-1.752,2.26-3.684,3.53-5.389,0.85-1.127,2.17-1.893,2.92-3.069,1.14-1.807,1.86-7.658,1.27-10.17l-0.15.06,0.06,0.148c-0.81,1.735-1.34,3.353-3.33,4.616-0.88.558-1.28-.338-2.11,0.332-1.07.853-.6,1.774-2.74,2.652-1.45-1.764-3.44-.585-4.47-1.655l0.15-.06c-0.06-1.467,2.24-3.442,2.92-4.793l2.07-5.148A30.627,30.627,0,0,0,1360.43,668c0.28-1.513.47-7.066,1.72-7.763,2.08,1.958,4.32,6.041,6.5,7.566a21.044,21.044,0,0,0,6.1,2.722c0.93,0.434,1.85.868,2.77,1.3,3.66,0.983,6.4,1.973,10.99,1.105l0.06,0.148-0.15.06a3.407,3.407,0,0,1-2.35,2.324,1.957,1.957,0,0,0-1.31.182c-1.95,1.461-2.46,2.347-5.38,3.371l-0.06-.148a0.76,0.76,0,0,0,0-.863,2.508,2.508,0,0,0-1.43-.115c-1.98,3.132-3.11-.73-5.45-0.226a0.552,0.552,0,0,1-.24.268l0.42,1.04c1.56,0.868,2.67,2.558,4.17,3.5,1.27,0.8,3.02.951,4.5,1.3,1.24,0.293,2.53.992,3.78,1.241,1.66,0.33,3.3-.171,5.12-0.16,1.5,0.008,2.95.537,4.49,0.435,0.96-.21,1.91-0.42,2.86-0.63l0.06,0.148-0.15.06c-0.3,1.53-3.68,3.985-6.16,4.027-1.12.019-1.49-.945-2.82-0.588-0.17,1.166.64,4.239-.06,5.024-0.79-.231-1.66.295-2.53,0.155a2.413,2.413,0,0,1-.8-0.712c-1.64-1.146-2.84-1.456-5.24-.137-0.46-.345-3.19-1.419-3.46-0.854a1.141,1.141,0,0,0,.12,1.159c0.84,0.929,1.67,1.859,2.51,2.789,1.92,1.437,5.55,3.663,7.86,4.085,6.07,1.107,12.79.21,18.73,1.444C1407.19,701.588,1410.35,701.572,1411.34,703.087Z"/>
  <path id="Color_Fill_1_copy_7" data-name="Color Fill 1 copy 7" class="cls-2" d="M1465.34,733.408c-1.35-.058-2.06.313-3.49,0.274a2.538,2.538,0,0,0-2.51-1.146,2.016,2.016,0,0,1-1.06.165,10.424,10.424,0,0,0-2.41-.517,1.855,1.855,0,0,1-1.73,1.183c-0.51-.976-0.84-2.659-1.92-3.107-0.5-.209-1.35.088-1.89-0.182-0.31-.4-0.61-0.791-0.92-1.187a3.972,3.972,0,0,0-3.06-.229v0.208c-0.43.666,0.26,1.381,0.47,1.795,0.96,1.857,1.73,2.142,3.28,3.373l1.23,1.408c1.12,0.9,2.43,1.762,3.62,2.55,1.33,0.884,3.15,1.193,4.48,2.064,0.94,0.618,1.96,1.225,2.9,1.894a10.258,10.258,0,0,0,1.45,1.1c1.5,0.7,3.39.838,4.82,1.555a0.392,0.392,0,0,1-.11.2,1.713,1.713,0,0,1-.85.07c-0.87-.683-1.75-0.076-2.54.105a4.125,4.125,0,0,1-1.9-.286,8.047,8.047,0,0,0-3.07.083c0,0.174-.01.348-0.01,0.522a0.724,0.724,0,0,1,.19.53,2.01,2.01,0,0,1-1.26-.261c-0.86-.317-0.9-1.315-1.42-1.938a0.33,0.33,0,0,0-.21.1c-0.93.3-.45,1.244-1.21,1.413-0.56-.595-1.49-0.645-2.19-1.134-0.82-.577-1.22-2.316-1.7-3.2a0.367,0.367,0,0,0-.21.1c-0.71.331-.63,1.589-0.92,2.365a1.62,1.62,0,0,1-.74.179c-0.55-.387-1.49-0.286-1.88-0.808-0.81-1.218.24-4.157-1.87-4.464l-0.12.309c-0.37.537,0.22,3.217,0.19,4.29l0.15,12.228a7.452,7.452,0,0,1-2.01.022c-0.61.38-3.32-.128-3.58-0.46-0.45-.644.41-3.039,0.45-4.264,0.08-2.5.17-4.92,0.22-7.3a30.533,30.533,0,0,0-.06-4.912l-0.42-.017a15.263,15.263,0,0,0-1.44,2.134c-0.73,1.565-1.05,2.848-2.44,3.661a3.155,3.155,0,0,1-2.02.44c-0.38-.15-0.52-0.471-1.06-0.148-1.28.423-.83,1.5-3.3,0.91a1.239,1.239,0,0,0-.5-0.857,0.762,0.762,0,0,0-.42-0.121c-1.13.856-2.28,2.03-4.28,1.6a12.052,12.052,0,0,1,.06-1.878,1.926,1.926,0,0,0-1.05-.252,3.9,3.9,0,0,1-2.02.335v-0.1l-0.1,0c-0.15-2.658,3.46-2.515,5.18-3.548,3.99-2.393,7.45-5.52,11.24-8.105,1.13-.768,3.18-1.759,3.38-3.414a2.047,2.047,0,0,1-.41-0.33c-2.49-.132-2.74,1.22-3.88,2.453-0.24.258-.71,0.348-0.97,0.587-1.6.054-2.01-.778-3.67-0.882a20.211,20.211,0,0,0-2.27,1.683c-1.48-.059-1.68-0.991-2.71-1.364a3.394,3.394,0,0,0-1.38.048,3.071,3.071,0,0,1-1.47-.269,2.562,2.562,0,0,1-.08-0.839,0.339,0.339,0,0,0,.11-0.2,54.218,54.218,0,0,1,5.24-1.771c1.8-.671,3.22-2.047,4.74-3.044,1.86-1.222,3.7-2.133,5.09-3.865,0.93-1.155,2.63-2.52,2.78-4.378l-0.21-.009a18.357,18.357,0,0,1-2.58,1.253c-0.63.381-1.19,1.022-1.84,1.387a9.612,9.612,0,0,0-1.82.865,2.752,2.752,0,0,0-1.36-.473c-1.14.33-1.59,1.339-3.11,1.335-0.51-.973-0.92-1.513-2.19-1.029,0-.14.01-0.279,0.01-0.418a12.526,12.526,0,0,1,.57-1.334,11.231,11.231,0,0,1,1.61-.875c1.16-.735,2.34-1.585,3.56-2.257,0.81-.444,1.81-0.544,2.57-1.043,1.17-.768,3.15-4.056,3.45-5.709l-0.1,0v0.1a5.879,5.879,0,0,1-3.23,1.853c-0.68.1-.69-0.544-1.37-0.369-0.86.223-.83,0.894-2.35,0.844-0.41-1.437-1.92-1.271-2.26-2.182l0.11,0c0.35-.89,2.26-1.448,3.02-2.07,0.87-.835,1.74-1.67,2.62-2.5a20.07,20.07,0,0,0,4.91-5.022c0.57-.825,2.15-4.077,3.09-4.156,0.73,1.722,1,4.749,1.92,6.241a13.853,13.853,0,0,0,2.97,3.255l1.32,1.517c1.95,1.564,3.35,2.889,6.34,3.6v0.1l-0.1,0a2.241,2.241,0,0,1-2.04.752,1.292,1.292,0,0,0-.84-0.243,10.125,10.125,0,0,1-4.14.562,0.367,0.367,0,0,0,.01-0.1c0.21-.166.18-0.143,0.22-0.513a1.666,1.666,0,0,0-.83-0.452c-2.02,1.332-1.68-1.268-3.23-1.6a0.373,0.373,0,0,1-.21.1c-0.01.244-.02,0.487-0.02,0.73,0.71,0.935.93,2.238,1.59,3.2a10.089,10.089,0,0,0,2.37,1.977c0.68,0.508,1.27,1.27,1.96,1.752a18.606,18.606,0,0,0,3.13,1.277c0.9,0.407,1.64,1.112,2.6,1.464l1.89,0.391v0.1l-0.11,0c-0.59.828-3.27,1.383-4.78,0.744-0.68-.29-0.65-0.962-1.55-1.108-0.41.648-.73,2.693-1.36,2.974-0.42-.349-1.08-0.271-1.57-0.587a1.694,1.694,0,0,1-.3-0.638c-0.68-1.12-1.33-1.627-3.12-1.486-0.19-.329-1.56-1.7-1.86-1.434a0.731,0.731,0,0,0-.24.721l0.78,2.33a16.112,16.112,0,0,0,3.67,4.537c3.37,2.287,7.66,3.555,10.92,5.879C1463.23,731.4,1465.14,732.24,1465.34,733.408Z"/>
  <path id="Color_Fill_1_copy_6" data-name="Color Fill 1 copy 6" class="cls-2" d="M239.14,683.413c-1.445,0-2.178.418-3.7,0.443a2.817,2.817,0,0,0-2.754-1.069,2.193,2.193,0,0,1-1.118.219,11.7,11.7,0,0,0-2.612-.422,1.894,1.894,0,0,1-1.747,1.3c-0.618-.983-1.1-2.7-2.281-3.115-0.55-.193-1.432.152-2.034-0.1l-1.068-1.181a4.381,4.381,0,0,0-3.274-.1l0.009,0.215c-0.405.706,0.386,1.412,0.646,1.829,1.167,1.869,2.009,2.128,3.757,3.326l1.415,1.395c1.273,0.873,2.734,1.706,4.057,2.464,1.484,0.851,3.453,1.086,4.934,1.923,1.052,0.6,2.181,1.173,3.239,1.821a11.283,11.283,0,0,0,1.626,1.071c1.648,0.652,3.67.71,5.249,1.384a0.346,0.346,0,0,1-.1.215,1.826,1.826,0,0,1-.9.111c-0.977-.665-1.871,0-2.7.224a4.58,4.58,0,0,1-2.039-.209,8.784,8.784,0,0,0-3.26.225l0.024,0.539a0.739,0.739,0,0,1,.249.537,2.233,2.233,0,0,1-1.362-.211c-0.944-.288-1.068-1.314-1.665-1.933a0.378,0.378,0,0,0-.221.108c-0.957.356-.375,1.3-1.173,1.512-0.642-.588-1.635-0.6-2.415-1.07-0.921-.557-1.482-2.331-2.061-3.224a0.378,0.378,0,0,0-.221.109c-0.734.372-.544,1.665-0.791,2.479a1.776,1.776,0,0,1-.78.218c-0.612-.374-1.6-0.228-2.063-0.748-0.96-1.218-.072-4.3-2.344-4.515-0.033.108-.065,0.216-0.1,0.323-0.35.571,0.485,3.306,0.535,4.414q0.564,6.3,1.127,12.6a8.224,8.224,0,0,1-2.137.114c-0.62.419-3.541,0.019-3.848-.311-0.531-.643.2-3.151,0.141-4.415-0.113-2.586-.207-5.078-0.337-7.537a30.525,30.525,0,0,0-.451-5.059h-0.451a15.355,15.355,0,0,0-1.365,2.266c-0.654,1.645-.891,2.982-2.307,3.883a3.378,3.378,0,0,1-2.118.545c-0.415-.137-0.584-0.461-1.132-0.1-1.339.5-.768,1.586-3.447,1.088a1.312,1.312,0,0,0-.6-0.86,0.808,0.808,0,0,0-.456-0.106c-1.129.933-2.268,2.2-4.428,1.844a12.386,12.386,0,0,1-.087-1.938,2.124,2.124,0,0,0-1.137-.212,4.177,4.177,0,0,1-2.122.438c0-.036,0-0.072,0-0.108h-0.113c-0.362-2.733,3.486-2.749,5.238-3.892,4.058-2.648,7.5-6.028,11.331-8.865,1.137-.843,3.246-1.958,3.331-3.672a2.134,2.134,0,0,1-.465-0.321c-2.659-.024-2.823,1.381-3.939,2.7-0.233.277-.725,0.391-0.985,0.649-1.7.129-2.2-.711-3.98-0.741a21.042,21.042,0,0,0-2.286,1.837c-1.577.006-1.859-.945-2.989-1.282a3.66,3.66,0,0,0-1.461.112,3.415,3.415,0,0,1-1.588-.211,2.644,2.644,0,0,1-.151-0.861,0.358,0.358,0,0,0,.1-0.215,56.5,56.5,0,0,1,5.433-2.063c1.866-.774,3.274-2.257,4.811-3.353,1.886-1.345,3.768-2.367,5.112-4.216,0.9-1.232,2.6-2.717,2.611-4.638h-0.225c-0.716.664-1.792,0.85-2.643,1.408-0.645.422-1.191,1.107-1.85,1.513a9.928,9.928,0,0,0-1.873.975,3.051,3.051,0,0,0-1.485-.426c-1.179.392-1.585,1.453-3.2,1.517-0.617-.979-1.1-1.517-2.411-0.961-0.006-.144-0.013-0.287-0.019-0.431a10.817,10.817,0,0,1,.5-1.4,10.88,10.88,0,0,1,1.648-.974c1.168-.811,2.363-1.74,3.61-2.488,0.824-.5,1.883-0.644,2.652-1.193,1.184-.845,3.032-4.323,3.226-6.04h-0.113c0,0.036,0,.072,0,0.108a6.022,6.022,0,0,1-3.291,2.056c-0.713.131-.77-0.53-1.48-0.318-0.9.269-.814,0.959-2.437,0.976-0.547-1.462-2.149-1.222-2.576-2.145H203.1c0.3-.932,2.292-1.594,3.056-2.27l2.585-2.7a19.918,19.918,0,0,0,4.833-5.4c0.539-.877,1.967-4.3,2.96-4.424,0.921,1.741,1.447,4.848,2.538,6.345a15.42,15.42,0,0,0,3.414,3.219l1.533,1.5c2.2,1.524,3.784,2.825,7.032,3.424,0,0.036,0,.072,0,0.107h-0.112a2.343,2.343,0,0,1-2.1.868,1.463,1.463,0,0,0-.912-0.213c-1.64.427-2.186,0.854-4.363,0.768,0-.036,0-0.072,0-0.108,0.211-.18.182-0.155,0.2-0.539a1.874,1.874,0,0,0-.921-0.428c-2.048,1.465-1.893-1.23-3.563-1.5a0.391,0.391,0,0,1-.22.108l0.033,0.754c0.832,0.93,1.173,2.263,1.949,3.224a11.171,11.171,0,0,0,2.679,1.93c0.757,0.492,1.45,1.251,2.219,1.716a21.047,21.047,0,0,0,3.435,1.174c0.994,0.379,1.835,1.071,2.882,1.39l2.043,0.317c0,0.036,0,.072,0,0.108h-0.113c-0.561.88-3.376,1.575-5.03,0.985-0.752-.268-0.769-0.963-1.739-1.071-0.386.686-.568,2.808-1.213,3.126-0.47-.341-1.173-0.23-1.715-0.533a1.72,1.72,0,0,1-.367-0.645c-0.817-1.123-1.542-1.616-3.445-1.389-0.226-.331-1.786-1.681-2.092-1.393a0.71,0.71,0,0,0-.192.754l1.008,2.366a17.674,17.674,0,0,0,4.261,4.509c3.772,2.2,8.441,3.315,12.088,5.562C236.735,681.444,238.834,682.219,239.14,683.413Z"/>
  <path id="Color_Fill_1_copy_2" data-name="Color Fill 1 copy 2" class="cls-4" d="M96.635,859.472c-2.055.011-3.119,0.632-5.287,0.676a3.775,3.775,0,0,0-3.859-1.575,3.085,3.085,0,0,1-1.6.331,15.6,15.6,0,0,0-3.692-.616c-0.527.973-1.069,1.881-2.553,1.938-0.826-1.459-1.424-4.014-3.077-4.622-0.771-.283-2.044.234-2.887-0.141l-1.455-1.751c-1.337-.883-3.117-0.5-4.651-0.129l0,0.32c-0.614,1.051.472,2.1,0.82,2.716,1.559,2.774,2.743,3.155,5.164,4.927l1.938,2.068c1.763,1.292,3.8,2.523,5.636,3.644,2.065,1.258,4.852,1.6,6.914,2.835,1.464,0.879,3.037,1.734,4.507,2.692a15.128,15.128,0,0,0,2.255,1.585c2.307,0.961,5.18,1.037,7.389,2.032a0.548,0.548,0,0,1-.158.321,2.54,2.54,0,0,1-1.282.169c-1.353-.984-2.66.011-3.846,0.345a6.144,6.144,0,0,1-2.888-.3,12.12,12.12,0,0,0-4.648.351q0,0.4.005,0.8a1.078,1.078,0,0,1,.326.8,3,3,0,0,1-1.926-.308c-1.327-.423-1.448-1.949-2.264-2.866a0.547,0.547,0,0,0-.32.163c-1.38.533-.6,1.938-1.749,2.252-0.882-.871-2.293-0.879-3.378-1.578-1.279-.824-1.982-3.46-2.758-4.784a0.552,0.552,0,0,0-.32.162c-1.064.558-.863,2.479-1.258,3.69a2.525,2.525,0,0,1-1.12.328c-0.85-.553-2.263-0.331-2.893-1.1-1.3-1.807.128-6.386-3.091-6.7l-0.157.481c-0.528.85,0.512,4.913,0.525,6.559L69.926,893.9a11.224,11.224,0,0,1-3.045.18c-0.9.626-5.037,0.046-5.455-.444-0.72-.953.448-4.686,0.438-6.565-0.021-3.844-.022-7.55-0.074-11.2a47.044,47.044,0,0,0-.371-7.521l-0.641,0a24.229,24.229,0,0,0-2.062,3.375c-1.018,2.449-1.428,4.439-3.489,5.785-0.5.328-2.162,1.126-3.041,0.821-0.583-.2-0.806-0.684-1.6-0.15-1.931.742-1.178,2.362-4.96,1.634a1.853,1.853,0,0,0-.81-1.275,1.078,1.078,0,0,0-.642-0.156c-1.656,1.393-3.343,3.276-6.4,2.763a19.162,19.162,0,0,1-.019-2.881,2.838,2.838,0,0,0-1.606-.309,5.892,5.892,0,0,1-3.042.66c0-.053,0-0.107,0-0.16h-0.16c-0.368-4.063,5.1-4.105,7.658-5.813,5.912-3.955,10.989-9,16.588-13.235,1.663-1.258,4.722-2.925,4.934-5.475a2.89,2.89,0,0,1-.645-0.476c-3.779-.021-4.088,2.068-5.746,4.04-0.347.413-1.052,0.585-1.437,0.97-2.418.2-3.089-1.046-5.619-1.083a31.849,31.849,0,0,0-3.349,2.743c-2.243.017-2.593-1.4-4.181-1.893a5.057,5.057,0,0,0-2.083.174,4.583,4.583,0,0,1-2.247-.3,4.008,4.008,0,0,1-.169-1.28,0.575,0.575,0,0,0,.158-0.321c2.385-1.35,5.135-1.93,7.836-3.093s4.776-3.371,7.022-5.008c2.754-2.008,5.485-3.538,7.494-6.292,1.34-1.837,3.849-4.053,3.963-6.909l-0.321,0c-1.054.99-2.594,1.273-3.834,2.106-0.939.631-1.752,1.653-2.711,2.259-0.912.577-1.983,0.73-2.716,1.458-0.55-.26-1.652-0.811-2.089-0.626-1.7.589-2.332,2.167-4.635,2.272-0.826-1.453-1.483-2.251-3.377-1.418l0-.641c0.4-.561.317-1.6,0.788-2.086a16.267,16.267,0,0,1,2.4-1.456c1.7-1.211,3.455-2.6,5.267-3.716,1.2-.74,2.712-0.966,3.836-1.787,1.728-1.261,4.542-6.441,4.911-9h-0.16c0,0.054,0,.107,0,0.161-1.388,1.317-2.479,2.626-4.79,3.072-1.021.2-1.066-.783-2.088-0.466-1.3.4-1.209,1.431-3.518,1.464-0.7-2.171-2.99-1.807-3.549-3.178h0.16c0.48-1.387,3.344-2.382,4.467-3.391l3.822-4.026a30.961,30.961,0,0,0,7.162-8.051c0.814-1.306,3.028-6.4,4.446-6.592,1.217,2.585,1.8,7.2,3.269,9.422a21.073,21.073,0,0,0,4.682,4.771l2.1,2.227c3.039,2.255,5.229,4.182,9.814,5.056,0,0.054,0,.107,0,0.16h-0.16a3.4,3.4,0,0,1-3.038,1.3,1.956,1.956,0,0,0-1.285-.312c-2.356.643-3.155,1.28-6.246,1.162,0-.053,0-0.106,0-0.16a0.755,0.755,0,0,0,.315-0.8,2.5,2.5,0,0,0-1.287-.632c-2.99,2.188-2.625-1.819-4.985-2.208a0.577,0.577,0,0,1-.32.163l0.008,1.12c1.133,1.38,1.546,3.36,2.6,4.785,0.889,1.2,2.461,1.992,3.707,2.856,1.05,0.729,2,1.853,3.063,2.541,1.422,0.915,3.136,1.052,4.822,1.728,1.393,0.559,2.551,1.584,4.022,2.054l2.889,0.461c0,0.054,0,.107,0,0.161H90.4c-0.845,1.311-4.886,2.357-7.206,1.488-1.056-.4-1.042-1.427-2.416-1.585-0.585,1.023-.959,4.179-1.893,4.655-0.65-.5-1.655-0.336-2.41-0.785a2.485,2.485,0,0,1-.487-0.957c-1.1-1.666-2.106-2.395-4.824-2.049-0.3-.49-2.449-2.49-2.9-2.061a1.12,1.12,0,0,0-.313,1.122l1.306,3.513c1.26,2.042,3.819,5.443,5.817,6.684,5.246,3.257,11.825,4.888,16.891,8.211C93.322,856.555,96.265,857.7,96.635,859.472Z"/>
  <path id="Color_Fill_2" data-name="Color Fill 2" class="cls-4" d="M183.09,740.185v15.482l3.283,2.444v1.63l1.642,0.815v0.814l2.463,0.815,0.821,1.63h1.641v0.815H195.4v0.814l8.209,1.63v0.815h-4.925V768.7h0.82v0.815c0.426,0.37,5.229.6,2.463,1.629-0.475.339-.12,1.331-1.642,0.815v-0.815h-1.641v1.63h-0.821v-0.815c-1.118-.95-1.255-1.487-1.642-3.259l-2.463.815,2.463,3.259h0.821c0.114,0.2.645,2.846,0.821,3.259H195.4v-1.63h-1.642c-0.5-1.949-.26-1.514-1.642-2.444v-0.815H191.3v2.445h-0.821v-4.074h-0.821c-0.712-1.268-.665-1.972-0.821-4.075l-3.284-.814v2.444H183.91v15.482l4.926,4.074h4.925v0.814h2.463v0.815h4.925v0.815h-1.642c0.7,2.7,1.858,2.364,3.284,4.074h-5.746v-0.815h-3.284v-0.814H192.94v1.629c1.444,1.125,2.139.361,0.821,1.63v0.815l-1.642-.815-0.82-2.445c-3.033-.283-4.514-1.246-6.568.815,1.411,0.918,1.113.516,1.642,2.445l-2.463-.815v0.815c0.935,0.928.327,0,.821,1.629,2.268,0.59,1.837.228,2.463,2.445l2.463,0.814V801.3H191.3v0.815l4.925,0.815v0.815h1.642v0.815h3.283L202.791,807l4.1,0.815v1.629l-2.463.815v-0.815h-0.821v2.445h-0.821c-0.935-.928,0-0.325-1.642-0.815-0.5-2.866-.883-3.739-4.1-4.074a6.088,6.088,0,0,1-1.642,2.444V808.63l-4.1-.815v-1.63h-1.642v3.259h-0.821v-1.629c-2.5-1.692-.344-1.435-1.642-3.259h-0.821v0.814h-0.821v-0.814c-1.884,2.054-.9,10.219-0.821,13.851h0.821v0.815h2.463l1.642,2.445,2.462-.815v1.629c1.561,1.736,4.17,2.321,7.388,2.445v1.63c2.9-.076,7.66.332,9.03,1.629h-3.283v3.259c-2.606-.6-3.7-2.129-5.747-3.259v2.445l-1.641-.815c-0.042.066,0.257,3.763-.821,2.444v-0.815l-1.642.815-0.821-1.629c-1.963-1.622-3.759-3.322-6.567-4.074v1.629l-2.463-.815q0.411,2.037.821,4.074h-1.642a23.8,23.8,0,0,0,.821,5.7c3.961,0.734,7.78,3.65,11.493,4.889h4.925l0.821,1.63c2.1,1.039,5.749.123,7.388,1.629a3.261,3.261,0,0,0-1.642,1.63H211v0.815c-0.935.928-.327,0-0.821,1.629h-0.821c-1.017-1.608-1.891-1.986-4.1-2.444v1.63c-2.142-1.126-3.315-2.129-6.567-2.445v1.63l2.462,0.815c-0.533,1.621-1.1,1.631,0,3.259h-0.821v0.815h-0.821c-1.686-2.3,1.476-2.112-2.462-3.26v3.26h-0.821v-3.26H195.4c-0.935-.927,0-0.324-1.642-0.814v-1.63H191.3v3.259l-1.642.815v-0.815h-0.821v3.259h-0.821v-1.629c-0.935-.928-0.327,0-0.821-1.63h-1.642q0.821,33.405,1.642,66.815h-0.821v-0.815h-5.746q0.409-35.034.821-70.074h-1.642l-1.642,3.259c-0.935-.928-0.327,0-0.821-1.629l-3.283.815v3.259h-1.642v-1.63c-2.657-.268-2.412-0.739-4.105-1.629V851h-0.82v-1.63l-3.284,2.445v-1.63c-0.935-.928-0.327,0-0.821-1.629a5.926,5.926,0,0,0-3.284.814v-0.814c-0.934-.929-0.327,0-0.82-1.63,0.934-.928.327,0,0.82-1.63h-2.462L156,842.852c6.073,0.113,14.22-.382,18.06-2.445q0.409-.815.821-1.629h1.641l0.821-1.63h1.642v-0.815l2.463-.814V830.63c-1.9-.188-2.1-0.164-3.284-0.815V829h-4.1q-0.411.814-.821,1.63l-1.642-.815h-0.821v0.815c-0.784,1.5-.821-1.63-0.821-1.63-4.805.864-5.358,2.045-9.851,2.444V830.63h0.821v-0.815c1.086-.79,2.4.036,3.284-0.815v-1.63l2.463,0.815V827.37h0.821v-0.814h-5.747v-0.815a22.072,22.072,0,0,0,8.209-2.445v-0.815H171.6v-0.814h2.463v-0.815H175.7v-0.815h1.642l2.463-4.074,1.642-.815V808.63c-1.65-.468-0.71.1-1.642-0.815a3.261,3.261,0,0,0,1.642-1.63h-0.821V805.37a8.737,8.737,0,0,1-3.284.815q-0.41,1.223-.821,2.445H175.7v2.444h-0.82v-1.63h-1.642v-1.629H171.6c-0.575,2.751-1.78,3.139-2.463,5.7h-0.821v-4.075h-0.82c-0.657,1.04-1.082,2.208-3.284,1.63v-0.815c-2.094-.753-0.935.817-2.463-0.815h0.821c1.906-2.071,3.06-1.238,5.746-2.444v-0.815l4.926-1.629q0.41-.816.821-1.63l5.746-4.889v-1.63l1.642-.814V790.7c-2.249.525-1.869,1.066-4.105,1.629a32.039,32.039,0,0,0,.821-6.518h-0.821v0.815h-0.821c-0.775,1.467-1.136,1.283-1.641,3.259-2.268.589-1.837,0.227-2.463,2.444-2.786-.3-4.941-1.518-7.388,0v0.815l-2.463,1.63v-1.63h0.821V790.7l2.463-.815v-0.815h-2.463v-1.63c-0.715.252-1.817,1.559-3.284,0.815v-0.815h1.642V786.63h3.284v-0.815h1.642V785h1.641v-0.815h1.642V783.37H171.6v-0.814h1.642v-0.815h1.642l4.925-5.7,1.642-.815v-16.3h-0.821c-0.957,1.109-1.5,1.245-3.284,1.63,0.308,0.877,1.021,3.451,0,4.888h-0.821c-0.935-.927,0-0.324-1.641-0.814v-2.445H174.06c-0.51,1.03-1.982,3.144-3.284,3.259-1.028-.535.329-0.973-0.821-0.814,0,0-.085,1.706-0.821.814v-1.629h-1.641V761.37a16.031,16.031,0,0,0,9.029-5.7h0.821c1.423-1.972,1.247-3.542,3.284-4.889v-3.259c-2.8.7-3.166,2.5-5.746,0,3.291-.192,5.817-1.273,6.567-4.075,1.715-1.861.9-8.868,0.821-12.222-1.886.224-2.1,0.144-3.284,0.815v0.815c-2.213.971-4.125,0.184-5.746,0v-1.63l5.746-.815,2.463-3.259h0.821c1.279-2.623-.875-6.249.821-8.148-0.124,4.549.791,15.763,1.641,17.111l1.642,0.815q0.411,1.222.821,2.444c0.49,0.623,1.65.64,2.463,1.63h-2.463v0.815a3.259,3.259,0,0,1,1.642,1.629h-1.642A5.531,5.531,0,0,0,183.09,740.185Z"/>
  <path id="Color_Fill_2_copy" data-name="Color Fill 2 copy" class="cls-4" d="M38.567,701.646v17.28l7.463,2.728v1.819l3.731,0.91v0.909l5.6,0.91,1.866,1.819h3.731v0.909h5.6v0.91l18.657,1.818v0.91H74.015v0.909h1.866v0.91c0.968,0.414,11.882.668,5.6,1.819-1.08.378-.273,1.485-3.731,0.909v-0.909H74.015v1.819H72.149v-0.91c-2.54-1.06-2.851-1.659-3.731-3.638l-5.6.91,5.6,3.638h1.866c0.26,0.221,1.467,3.176,1.866,3.638h-5.6v-1.819H62.821c-1.133-2.177-.592-1.691-3.731-2.729v-0.909H57.224v2.728H55.358v-4.547H53.493c-1.618-1.415-1.511-2.2-1.866-4.547l-7.463-.91v2.728H40.433v17.28l11.194,4.548H62.821V754.4h5.6v0.91H79.612v0.909H75.881c1.587,3.014,4.223,2.638,7.463,4.547H70.284v-0.909H62.821v-0.91H60.955v1.819c3.282,1.256,4.86.4,1.866,1.819v0.91l-3.731-.91-1.866-2.728c-6.893-.316-10.259-1.391-14.925.909,3.207,1.025,2.528.576,3.731,2.729l-5.6-.91v0.91c2.124,1.036.743,0,1.866,1.819,5.154,0.657,4.174.253,5.6,2.728l5.6,0.91v0.909h3.731v0.909l11.194,0.91v0.909h3.731v0.91h7.463l3.731,2.728,9.328,0.91v1.819l-5.6.909v-0.909H85.209v2.728H83.343c-2.126-1.036-.007-0.362-3.731-0.909-1.141-3.2-2.007-4.174-9.328-4.548a9.275,9.275,0,0,1-3.731,2.729v-0.91l-9.328-.909v-1.819H53.493v3.638H51.627v-1.819c-5.677-1.889-.781-1.6-3.731-3.638H46.03V774.4H44.164v-0.909c-4.282,2.293-2.053,11.406-1.866,15.461h1.866v0.909h5.6l3.731,2.729,5.6-.91V793.5c3.547,1.937,9.477,2.59,16.791,2.728v1.819c6.6-.084,17.408.372,20.522,1.819H88.94v3.638c-5.923-.676-8.42-2.376-13.06-3.638V802.6l-3.731-.91c-0.095.074,0.586,4.2-1.866,2.729v-0.91l-3.731.91L64.687,802.6c-4.463-1.81-8.543-3.707-14.925-4.548v1.819l-5.6-.909,1.866,4.547H42.3c0.05,3.035.981,4.117,1.866,6.366,9,0.82,17.682,4.074,26.119,5.457H81.478l1.866,1.819c4.779,1.16,13.065.138,16.791,1.819-2.452.736-2.2,0.641-3.731,1.819H102V821.7c-2.124,1.037-.743,0-1.866,1.819H98.269c-2.312-1.795-4.3-2.217-9.328-2.728v1.819c-4.867-1.256-7.533-2.376-14.925-2.728V821.7l5.6,0.91c-1.211,1.81-2.507,1.821,0,3.638H77.746v0.909H75.881c-3.834-2.566,3.353-2.356-5.6-3.638v3.638H68.418v-3.638H66.552c-2.126-1.035-.007-0.362-3.731-0.909v-1.819h-5.6v3.638l-3.731.909v-0.909H51.627v3.638H49.761v-1.819c-2.124-1.036-.743,0-1.866-1.819H44.164L47.9,899H46.03v-0.909H32.97q0.933-39.1,1.866-78.214H31.1l-3.731,3.637c-2.124-1.036-.743,0-1.866-1.819l-7.463.91v3.638H14.313v-1.819c-6.039-.3-5.482-0.826-9.328-1.819v2.728H3.119v-1.819l-7.463,2.729v-1.819c-2.124-1.036-.743,0-1.866-1.819a25.036,25.036,0,0,0-7.463.909v-0.909c-2.124-1.036-.743,0-1.866-1.819,2.124-1.036.743,0,1.866-1.819h-5.6L-23,816.239c13.8,0.126,32.318-.426,41.045-2.729l1.866-1.819h3.731l1.866-1.819h3.731v-0.909l5.6-.91V802.6c-4.313-.21-4.774-0.182-7.463-0.91v-0.909H18.045L16.179,802.6l-3.731-.91H10.582v0.91c-1.782,1.674-1.866-1.819-1.866-1.819-10.921.965-12.178,2.282-22.388,2.728V802.6h1.866v-0.91c2.467-.881,5.451.041,7.463-0.909v-1.819l5.6,0.909v-0.909H3.119v-0.91H-9.94V797.14a92.05,92.05,0,0,0,18.657-2.728V793.5h3.731v-0.909h5.6v-0.91h3.731v-0.909h3.731l5.6-4.548,3.731-.909v-7.276c-3.749-.522-1.614.109-3.731-0.909,2.452-.736,2.2-0.641,3.731-1.819H32.97V774.4a37.414,37.414,0,0,1-7.463.91l-1.866,2.728H21.776v2.729H19.91v-1.819H16.179v-1.819H12.448c-1.307,3.071-4.046,3.5-5.6,6.366H4.985v-4.547H3.119c-1.491,1.159-2.457,2.464-7.463,1.819v-0.91c-4.759-.841-2.125.912-5.6-0.909h1.866c4.331-2.312,6.954-1.382,13.06-2.729v-0.909l11.194-1.819,1.866-1.819,13.06-5.457V764.4l3.731-.909v-5.457c-5.11.586-4.247,1.19-9.328,1.819,0.868-2.355,1.79-4.023,1.866-7.276H25.508v0.91H23.642c-1.762,1.638-2.583,1.432-3.731,3.637-5.154.658-4.174,0.254-5.6,2.729-6.332-.339-11.228-1.695-16.791,0v0.909l-5.6,1.819v-1.819h1.866v-2.728l5.6-.91v-0.909h-5.6V754.4c-1.626.28-4.13,1.739-7.463,0.91V754.4H-9.94v-0.909h7.463v-0.91H1.254v-0.909H4.985v-0.91H8.716v-0.909h3.731v-0.91h3.731v-0.909H19.91L31.1,741.663l3.731-.91V722.564H32.97c-2.174,1.238-3.4,1.39-7.463,1.819,0.7,0.98,2.319,3.852,0,5.457H23.642c-2.126-1.036-.007-0.363-3.731-0.91V726.2H18.045c-1.158,1.15-4.5,3.508-7.463,3.638-2.336-.6.748-1.086-1.866-0.91a1.13,1.13,0,0,1-1.866.91v-1.819H3.119v-2.729a50.021,50.021,0,0,0,20.522-6.366h1.866c3.233-2.2,2.832-3.953,7.463-5.457v-3.638c-6.356.784-7.2,2.8-13.06,0,7.481-.214,13.222-1.421,14.925-4.547,3.9-2.078,2.053-9.9,1.866-13.642-4.287.25-4.778,0.16-7.463,0.909v0.91c-5.03,1.083-9.375.206-13.06,0v-1.819l13.06-.909,5.6-3.638H36.7c2.908-2.928-1.988-6.975,1.866-9.1-0.281,5.078,1.8,17.594,3.731,19.1l3.731,0.909,1.866,2.729c1.114,0.7,3.749.714,5.6,1.819H47.9v0.909c2.452,0.736,2.2.64,3.731,1.819H47.9C45.656,703.3,43.783,702.288,38.567,701.646Z"/>
  <path id="Color_Fill_2_copy_2" data-name="Color Fill 2 copy 2" class="cls-4" d="M1628.57,713.646v17.28q3.72,1.364,7.46,2.728v1.819l3.73,0.91v0.909l5.6,0.91,1.86,1.819h3.74v0.909h5.59v0.91l18.66,1.818v0.91h-11.2v0.909h1.87v0.91c0.97,0.414,11.88.668,5.6,1.819-1.08.378-.28,1.485-3.73,0.909v-0.909h-3.74v1.819h-1.86v-0.91c-2.54-1.06-2.85-1.659-3.73-3.638l-5.6.91c1.87,1.212,3.73,2.425,5.6,3.638h1.86c0.26,0.221,1.47,3.176,1.87,3.638h-5.6v-1.819h-3.73c-1.13-2.177-.59-1.691-3.73-2.729v-0.909h-1.87v2.728h-1.86v-4.547h-1.87c-1.62-1.415-1.51-2.2-1.86-4.547l-7.47-.91v2.728h-3.73v17.28q5.6,2.274,11.2,4.548h11.19V766.4h5.6v0.91h11.19v0.909h-3.73c1.59,3.014,4.22,2.638,7.46,4.547h-13.06v-0.909h-7.46v-0.91h-1.86v1.819c3.28,1.256,4.86.4,1.86,1.819v0.91l-3.73-.91c-0.62-.909-1.24-1.819-1.87-2.728-6.89-.316-10.26-1.391-14.92.909,3.21,1.025,2.53.576,3.73,2.729l-5.6-.91v0.91c2.13,1.036.75,0,1.87,1.819,5.15,0.657,4.17.253,5.6,2.728,1.86,0.3,3.73.606,5.59,0.91v0.909h3.73v0.909l11.2,0.91v0.909h3.73v0.91h7.46q1.875,1.364,3.73,2.728l9.33,0.91v1.819q-2.79.455-5.6,0.909v-0.909h-1.86v2.728h-1.87c-2.12-1.036,0-.362-3.73-0.909-1.14-3.2-2.01-4.174-9.33-4.548a9.286,9.286,0,0,1-3.73,2.729v-0.91l-9.33-.909v-1.819h-3.73v3.638h-1.86v-1.819c-5.68-1.889-.78-1.6-3.73-3.638h-1.87V786.4h-1.87v-0.909c-4.28,2.293-2.05,11.406-1.86,15.461h1.86v0.909h5.6c1.24,0.91,2.49,1.819,3.73,2.729l5.6-.91V805.5c3.55,1.937,9.48,2.59,16.79,2.728v1.819c6.6-.084,17.41.372,20.52,1.819h-7.46v3.638c-5.92-.676-8.42-2.376-13.06-3.638V814.6l-3.73-.91c-0.1.074,0.59,4.2-1.87,2.729v-0.91c-1.24.3-2.48,0.607-3.73,0.91l-1.86-1.819c-4.47-1.81-8.55-3.707-14.93-4.548v1.819q-2.79-.454-5.6-0.909,0.945,2.273,1.87,4.547h-3.73c0.05,3.035.98,4.117,1.86,6.366,9.01,0.82,17.69,4.074,26.12,5.457h11.2l1.86,1.819c4.78,1.16,13.07.138,16.79,1.819-2.45.736-2.19,0.641-3.73,1.819h5.6V833.7c-2.12,1.037-.74,0-1.87,1.819h-1.86c-2.31-1.795-4.3-2.217-9.33-2.728v1.819c-4.87-1.256-7.53-2.376-14.93-2.728V833.7l5.6,0.91c-1.21,1.81-2.5,1.821,0,3.638h-1.86v0.909h-1.87c-3.83-2.566,3.35-2.356-5.6-3.638v3.638h-1.86v-3.638h-1.87c-2.12-1.035,0-.362-3.73-0.909v-1.819h-5.6v3.638c-1.24.3-2.48,0.606-3.73,0.909v-0.909h-1.86v3.638h-1.87v-1.819c-2.12-1.036-.74,0-1.86-1.819h-3.74q1.875,37.284,3.74,74.576h-1.87v-0.909h-13.06q0.93-39.1,1.87-78.214h-3.74q-1.86,1.818-3.73,3.637c-2.12-1.036-.74,0-1.86-1.819l-7.47.91v3.638h-3.73v-1.819c-6.04-.3-5.48-0.826-9.32-1.819v2.728h-1.87v-1.819q-3.735,1.365-7.46,2.729v-1.819c-2.13-1.036-.75,0-1.87-1.819a25.01,25.01,0,0,0-7.46.909v-0.909c-2.13-1.036-.74,0-1.87-1.819,2.13-1.036.75,0,1.87-1.819h-5.6c-1.24-.909-2.49-1.819-3.73-2.728,13.8,0.126,32.32-.426,41.04-2.729,0.63-.606,1.25-1.212,1.87-1.819h3.73c0.62-.606,1.25-1.212,1.87-1.819h3.73v-0.909l5.6-.91V814.6c-4.32-.21-4.78-0.182-7.47-0.91v-0.909h-9.33l-1.86,1.819-3.73-.91h-1.87v0.91c-1.78,1.674-1.86-1.819-1.86-1.819-10.93.965-12.18,2.282-22.39,2.728V814.6h1.86v-0.91c2.47-.881,5.45.041,7.47-0.909v-1.819l5.59,0.909v-0.909h1.87v-0.91h-13.06V809.14a92.079,92.079,0,0,0,18.66-2.728V805.5h3.73v-0.909h5.59v-0.91h3.74v-0.909h3.73c1.86-1.516,3.73-3.032,5.59-4.548l3.74-.909v-7.276c-3.75-.522-1.62.109-3.74-0.909,2.46-.736,2.2-0.641,3.74-1.819h-1.87V786.4a37.4,37.4,0,0,1-7.46.91c-0.62.909-1.25,1.819-1.87,2.728h-1.86v2.729h-1.87v-1.819h-3.73v-1.819h-3.73c-1.31,3.071-4.05,3.5-5.6,6.366h-1.86v-4.547h-1.87c-1.49,1.159-2.46,2.464-7.46,1.819v-0.91c-4.76-.841-2.13.912-5.6-0.909h1.87c4.33-2.312,6.95-1.382,13.06-2.729v-0.909l11.19-1.819,1.86-1.819q6.54-2.728,13.06-5.457V776.4l3.74-.909v-5.457c-5.11.586-4.25,1.19-9.33,1.819,0.87-2.355,1.79-4.023,1.86-7.276h-1.86v0.91h-1.87c-1.76,1.638-2.58,1.432-3.73,3.637-5.15.658-4.17,0.254-5.6,2.729-6.33-.339-11.22-1.695-16.79,0v0.909c-1.86.607-3.73,1.213-5.59,1.819v-1.819h1.86v-2.728l5.6-.91v-0.909h-5.6V766.4c-1.62.28-4.13,1.739-7.46,0.91V766.4h3.73v-0.909h7.46v-0.91h3.73v-0.909h3.74v-0.91h3.73v-0.909h3.73v-0.91h3.73v-0.909h3.73q5.6-3.183,11.19-6.366c1.25-.3,2.49-0.607,3.74-0.91V734.564h-1.87c-2.17,1.238-3.4,1.39-7.46,1.819,0.7,0.98,2.32,3.852,0,5.457h-1.87c-2.12-1.036,0-.363-3.73-0.91V738.2h-1.87c-1.15,1.15-4.5,3.508-7.46,3.638-2.33-.6.75-1.086-1.86-0.91a1.134,1.134,0,0,1-1.87.91v-1.819h-3.73v-2.729a50.017,50.017,0,0,0,20.52-6.366h1.87c3.23-2.2,2.83-3.953,7.46-5.457v-3.638c-6.36.784-7.2,2.8-13.06,0,7.48-.214,13.22-1.421,14.93-4.547,3.89-2.078,2.05-9.9,1.86-13.642-4.29.25-4.78,0.16-7.46,0.909v0.91c-5.03,1.083-9.38.206-13.06,0v-1.819l13.06-.909q2.79-1.819,5.6-3.638h1.86c2.91-2.928-1.99-6.975,1.87-9.1-0.28,5.078,1.8,17.594,3.73,19.1l3.73,0.909c0.62,0.91,1.24,1.819,1.87,2.729,1.11,0.7,3.74.714,5.59,1.819h-5.59v0.909c2.45,0.736,2.19.64,3.73,1.819h-3.73C1635.66,715.3,1633.78,714.288,1628.57,713.646Z"/>
</svg>
