<svg width="1440" height="940" viewBox="0 0 1440 940" fill="none" xmlns="http://www.w3.org/2000/svg">
<path d="M1067.39 42.8724C742.083 -24.908 630.842 121.823 436.355 127.201C26.6784 138.534 -159.943 424.255 -89.3965 565.374C19.1677 782.538 424.611 639.145 555.161 741.863C685.711 844.58 902.676 966.372 1223.23 850.896C1543.79 735.42 1572.82 536.067 1541.06 478.916C1395.13 216.943 1284.49 88.1316 1067.39 42.8724Z" fill="#FCCE44"/>
<path d="M518.787 674.637L435.77 790.866L347.837 653.723L518.787 674.637Z" fill="#58BCFF"/>
<path d="M1219.58 698.27L1309.59 735.066C1333.71 744.934 1360.8 727.65 1357.35 704.603L1345.81 627.814C1345.1 622.994 1343.03 618.404 1339.79 614.453C1336.55 610.501 1332.24 607.311 1327.24 605.168C1322.24 603.024 1316.72 601.994 1311.15 602.169C1305.59 602.344 1300.16 603.718 1295.35 606.169L1216.89 646.188C1193.41 658.148 1194.96 688.202 1219.58 698.27Z" fill="#24A437"/>
<path d="M141.661 753.73C199.74 753.73 246.821 715.917 246.821 669.273C246.821 622.628 199.74 584.815 141.661 584.815C83.5835 584.815 36.502 622.628 36.502 669.273C36.502 715.917 83.5835 753.73 141.661 753.73Z" fill="#FF3864"/>
<path d="M1176.71 285.531L1289.16 194.709C1316.24 172.833 1358.73 174.465 1384.05 198.354C1409.38 222.243 1407.95 259.342 1380.87 281.218L1268.42 372.041C1241.34 393.916 1198.85 392.284 1173.53 368.395C1148.2 344.507 1149.63 307.407 1176.71 285.531Z" fill="#58BCFF"/>
<path d="M1115.97 926.261L912.478 861.181C889.177 853.729 881.366 831.239 895.031 810.948C908.696 790.657 938.662 780.249 961.963 787.701L1165.45 852.78C1188.75 860.232 1196.57 882.722 1182.9 903.013C1169.24 923.304 1139.27 933.713 1115.97 926.261Z" fill="#586BD8"/>
<path d="M1202.12 123.828C1227.45 99.9407 1225.64 62.5386 1198.1 40.2881C1170.55 18.0376 1127.69 19.3645 1102.36 43.2518C1077.04 67.1391 1078.84 104.541 1106.39 126.792C1133.93 149.042 1176.8 147.715 1202.12 123.828Z" fill="#FF3864"/>
<path d="M-88.5703 169.587C-131.562 210.03 -50.3179 252.341 -63.4514 278.971C-91.1603 335.086 -15.2617 360.739 28.6665 358.679C96.2074 355.568 98.4667 302.66 136.37 290.451C174.273 278.242 216.65 245.447 209.174 195.857C201.698 146.267 169.286 123.781 86.6374 131.317C3.98848 138.852 -59.8695 142.58 -88.5703 169.587Z" fill="#24A437"/>
<path d="M417.408 161.029C417.408 205.622 381.258 241.772 336.665 241.772C292.072 241.772 255.922 205.622 255.922 161.029C255.922 116.436 292.072 80.2866 336.665 80.2866C381.258 80.2866 417.408 116.436 417.408 161.029Z" fill="#586BD8"/>
</svg>
