<svg id="visual" viewBox="0 0 1440 940" width="1440" height="940" xmlns="http://www.w3.org/2000/svg" xmlns:xlink="http://www.w3.org/1999/xlink" version="1.1"><rect x="0" y="0" width="1440" height="940" fill="#aeded4"></rect><path d="M0 616L30 611.2C60 606.3 120 596.7 180 605.8C240 615 300 643 360 646.3C420 649.7 480 628.3 540 620.8C600 613.3 660 619.7 720 628.7C780 637.7 840 649.3 900 650.3C960 651.3 1020 641.7 1080 628.2C1140 614.7 1200 597.3 1260 600.7C1320 604 1380 628 1410 640L1440 652L1440 941L1410 941C1380 941 1320 941 1260 941C1200 941 1140 941 1080 941C1020 941 960 941 900 941C840 941 780 941 720 941C660 941 600 941 540 941C480 941 420 941 360 941C300 941 240 941 180 941C120 941 60 941 30 941L0 941Z" fill="#039273"></path><path d="M0 698L30 698.8C60 699.7 120 701.3 180 704.3C240 707.3 300 711.7 360 702.3C420 693 480 670 540 668.2C600 666.3 660 685.7 720 693.5C780 701.3 840 697.7 900 690.3C960 683 1020 672 1080 673.2C1140 674.3 1200 687.7 1260 696C1320 704.3 1380 707.7 1410 709.3L1440 711L1440 941L1410 941C1380 941 1320 941 1260 941C1200 941 1140 941 1080 941C1020 941 960 941 900 941C840 941 780 941 720 941C660 941 600 941 540 941C480 941 420 941 360 941C300 941 240 941 180 941C120 941 60 941 30 941L0 941Z" fill="#09ac8c"></path><path d="M0 719L30 718.7C60 718.3 120 717.7 180 716.2C240 714.7 300 712.3 360 714.8C420 717.3 480 724.7 540 725.2C600 725.7 660 719.3 720 724.2C780 729 840 745 900 746.8C960 748.7 1020 736.3 1080 732.3C1140 728.3 1200 732.7 1260 740.3C1320 748 1380 759 1410 764.5L1440 770L1440 941L1410 941C1380 941 1320 941 1260 941C1200 941 1140 941 1080 941C1020 941 960 941 900 941C840 941 780 941 720 941C660 941 600 941 540 941C480 941 420 941 360 941C300 941 240 941 180 941C120 941 60 941 30 941L0 941Z" fill="#0dc7a7"></path><path d="M0 821L30 813.3C60 805.7 120 790.3 180 783.2C240 776 300 777 360 779.3C420 781.7 480 785.3 540 790.2C600 795 660 801 720 799.2C780 797.3 840 787.7 900 782.8C960 778 1020 778 1080 777.7C1140 777.3 1200 776.7 1260 776C1320 775.3 1380 774.7 1410 774.3L1440 774L1440 941L1410 941C1380 941 1320 941 1260 941C1200 941 1140 941 1080 941C1020 941 960 941 900 941C840 941 780 941 720 941C660 941 600 941 540 941C480 941 420 941 360 941C300 941 240 941 180 941C120 941 60 941 30 941L0 941Z" fill="#0de3c3"></path><path d="M0 877L30 873.8C60 870.7 120 864.3 180 863.7C240 863 300 868 360 866.8C420 865.7 480 858.3 540 854.7C600 851 660 851 720 850.8C780 850.7 840 850.3 900 855.2C960 860 1020 870 1080 874.3C1140 878.7 1200 877.3 1260 875.7C1320 874 1380 872 1410 871L1440 870L1440 941L1410 941C1380 941 1320 941 1260 941C1200 941 1140 941 1080 941C1020 941 960 941 900 941C840 941 780 941 720 941C660 941 600 941 540 941C480 941 420 941 360 941C300 941 240 941 180 941C120 941 60 941 30 941L0 941Z" fill="#08ffe1"></path></svg>