<svg xmlns="http://www.w3.org/2000/svg" width="1654" height="1080" viewBox="0 0 1654 1080">
  <defs>
    <style>
      .cls-1 {
        fill: #feeacb;
      }

      .cls-1, .cls-2 {
        fill-rule: evenodd;
      }

      .cls-2 {
        fill: #ff5d1b;
      }
    </style>
  </defs>
  <path class="cls-1" d="M-9.189-32.17H1733.25V1129.4H-9.189V-32.17Z"/>
  <path id="Color_Fill_4" data-name="Color Fill 4" class="cls-2" d="M303.107,360.294v0.628c0.677,0.409.655,1.067,0.967,1.254h1.29v0.314a4.3,4.3,0,0,0-2.9.941h-0.645l-0.645.942L299.24,365v0.314H298.6v0.313h-1.934v0.314c-1.336.355-5.011-.858-5.8-1.255v-0.313h-0.645v-0.314h-1.934v-0.314H285.7v-0.314h-0.966v-0.313h-0.967V362.8a0.558,0.558,0,0,1-.323-0.314c2.434,0.1,3.759.5,5.8-.314,0.6-1.062.931-1.043,0.967-2.823-0.694-.573-0.739-1.463-1.289-2.2H288.6c-0.107-.209-0.215-0.418-0.322-0.628h-0.645c-0.214-.313-0.43-0.627-0.644-0.941h-0.645l-0.322-.627H285.38v-0.314h-0.644v-0.314h-0.967V354.02h-0.645v-0.314h-0.645c-0.107-.209-0.215-0.418-0.322-0.628l-1.289-.313-0.645-.941h-0.645Q278.29,350.411,277,349h0.645c0.683,0.98,1.286.661,2.256,1.255l0.322,0.627,2.9,0.942v0.313l1.289,0.314v0.314h0.967v0.313h0.967v0.314h1.612v0.314l2.256,0.314v0.313h0.645v0.314l1.611,0.314v0.314l0.967,0.313,0.322,0.628H294.4l0.322,0.627,1.289,0.941v0.628l0.645,0.313v0.628h0.322l0.323,0.627h1.934v-0.313l1.611-.314,1.289-1.569c1.486-.8,4.193.261,5.48,0.628H310.2v0.313l5.8-.627v0.314h-0.322v0.313l-0.967.314v0.314h-0.967v0.314h-4.513A31.734,31.734,0,0,0,303.107,360.294Z"/>
  <path id="Color_Fill_4_copy" data-name="Color Fill 4 copy" class="cls-2" d="M202.521,407.931v1.107c1.178,0.723,1.141,1.884,1.686,2.215h2.248v0.553c-3.181.124-3.171,0.605-5.058,1.661h-1.124q-0.562.831-1.124,1.661l-3.372,1.107v0.554h-1.124v0.554h-3.372V417.9c-2.33.627-8.737-1.514-10.116-2.214v-0.554h-1.124v-0.554h-3.372v-0.553h-4.5v-0.554h-1.685v-0.554H168.8V412.36a0.977,0.977,0,0,1-.562-0.554c4.243,0.169,6.554.887,10.115-.553,1.047-1.876,1.623-1.841,1.686-4.983-1.21-1.011-1.287-2.582-2.248-3.876h-0.562q-0.28-.554-0.562-1.107h-1.124l-1.124-1.661H173.3l-0.561-1.107h-1.124v-0.554h-1.124v-0.553H168.8v-0.554h-1.124V396.3h-1.124q-0.282-.553-0.562-1.107l-2.248-.553-1.124-1.661H161.5L157,388h1.124c1.192,1.73,2.243,1.167,3.934,2.215q0.281,0.554.562,1.107l5.058,1.661v0.553l2.248,0.554v0.554h1.686V395.2H173.3v0.554h2.81V396.3l3.934,0.554v0.554h1.124v0.553l2.81,0.554v0.554l1.686,0.553q0.281,0.554.562,1.108h1.124l0.562,1.107,2.248,1.661v1.107l1.124,0.554v1.107h0.562l0.562,1.107h3.372v-0.553l2.81-.554q1.124-1.385,2.248-2.768c2.591-1.416,7.309.46,9.553,1.107h4.5v0.554L225,404.055v0.554h-0.562v0.554l-1.686.553v0.554h-1.686v0.554H213.2A54.77,54.77,0,0,0,202.521,407.931Z"/>
  <path id="Color_Fill_4_copy_2" data-name="Color Fill 4 copy 2" class="cls-2" d="M439.521,379.931v1.107c1.179,0.723,1.141,1.884,1.686,2.215h2.248v0.553c-3.181.124-3.171,0.605-5.058,1.661h-1.124q-0.562.831-1.124,1.661l-3.372,1.107v0.554h-1.124v0.554h-3.372V389.9c-2.33.627-8.737-1.514-10.116-2.214v-0.554h-1.124v-0.554h-3.372v-0.553h-4.5v-0.554h-1.685v-0.554H405.8V384.36a0.977,0.977,0,0,1-.562-0.554c4.243,0.169,6.554.887,10.115-.553,1.047-1.876,1.623-1.841,1.686-4.983-1.21-1.011-1.287-2.582-2.248-3.876h-0.562q-0.281-.554-0.562-1.107h-1.124l-1.124-1.661H410.3l-0.561-1.107h-1.124v-0.554h-1.124v-0.553H405.8v-0.554h-1.124V368.3h-1.124q-0.282-.553-0.562-1.107l-2.248-.553-1.124-1.661H398.5L394,360h1.124c1.191,1.73,2.243,1.167,3.934,2.214q0.281,0.555.562,1.108l5.058,1.661v0.553l2.248,0.554v0.554h1.686V367.2H410.3v0.554h2.81V368.3l3.934,0.554v0.554h1.124v0.553l2.81,0.554v0.554l1.686,0.553q0.281,0.554.562,1.108h1.124l0.562,1.107,2.248,1.661v1.107l1.124,0.554v1.107h0.562l0.562,1.107h3.372v-0.554l2.81-.553q1.124-1.385,2.248-2.768c2.591-1.416,7.309.46,9.553,1.107h4.5v0.554L462,376.055v0.554h-0.562v0.554l-1.686.553v0.554h-1.686v0.553H450.2A54.842,54.842,0,0,0,439.521,379.931Z"/>
  <path id="Color_Fill_3" data-name="Color Fill 3" class="cls-2" d="M86.727,404.875a9.636,9.636,0,0,1-4.439-.563V403.75H80.624v-0.563a0.974,0.974,0,0,1-.555-0.562c3.377,0.05,8.059-.143,10.542-1.125v-0.563h1.11v-0.562H94.5v-0.563H95.6V399.25h1.665l0.555-1.125h2.219c3.144-1.115,5.533-1.055,9.987-1.125v0.562h0.555a4.287,4.287,0,0,1-1.664,1.125,9.393,9.393,0,0,0,2.219,3.375h1.11q0.555,0.844,1.109,1.688h1.11l1.664,2.25,1.11,0.562v1.125H117.8l0.555,2.25h0.555v2.813h0.554c1.108,3.645.169,7.694,0,11.25h-0.554v-0.563h-0.555l-0.555-2.812h-0.555V419.5h-0.555v-1.125l-1.109-.563v-1.125l-1.11-.562V415l-3.329-2.813v-1.125q-1.388-1.124-2.774-2.25c-2.351-2.41-2.409-4.807-7.213-5.062-1.279-1.238-4.12-.307-5.548,0-3.29,5.945-8.081,11.178-14.426,14.062V415c1.255-1.146.41-1.251,1.11-2.813h0.555q0.555-1.686,1.11-3.375h0.555v-1.125h0.555A6.277,6.277,0,0,0,86.727,404.875Z"/>
  <path id="Color_Fill_3_copy" data-name="Color Fill 3 copy" class="cls-2" d="M500.727,362.875a9.634,9.634,0,0,1-4.438-.563V361.75h-1.665v-0.563a0.978,0.978,0,0,1-.555-0.562c3.378,0.05,8.059-.143,10.542-1.125v-0.563h1.11v-0.562H508.5v-0.563h1.11V357.25h1.664l0.555-1.125h2.219c3.144-1.115,5.533-1.055,9.987-1.125v0.562h0.555a4.287,4.287,0,0,1-1.664,1.125,9.393,9.393,0,0,0,2.219,3.375h1.11q0.553,0.844,1.109,1.688h1.11l1.664,2.25,1.11,0.562v1.125H531.8l0.555,2.25h0.555v2.813h0.554c1.108,3.645.169,7.694,0,11.25h-0.554v-0.563h-0.555l-0.555-2.812h-0.555V377.5h-0.555v-1.125l-1.109-.563v-1.125l-1.11-.562V373l-3.329-2.813v-1.125q-1.387-1.124-2.774-2.25c-2.351-2.41-2.409-4.807-7.213-5.062-1.279-1.238-4.12-.307-5.548,0-3.291,5.945-8.082,11.178-14.426,14.062V373c1.255-1.146.41-1.251,1.11-2.813h0.555q0.554-1.686,1.109-3.375h0.555v-1.125h0.555A6.27,6.27,0,0,0,500.727,362.875Z"/>
  <path id="Color_Fill_4-2" data-name="Color Fill 4" class="cls-2" d="M333.12,464.681v0.537a4.562,4.562,0,0,1,.815,1.076h1.086v0.269a3.592,3.592,0,0,0-2.445.807h-0.543l-0.543.806-1.63.538v0.269h-0.543v0.269h-1.63v0.269c-1.126.305-4.223-.735-4.889-1.076v-0.269h-0.544v-0.268h-1.629v-0.269h-2.173V467.37h-0.815V467.1h-0.815v-0.269a0.474,0.474,0,0,1-.272-0.269c2.051,0.082,3.168.431,4.89-.269a3.433,3.433,0,0,0,.814-2.42c-0.584-.491-0.622-1.254-1.086-1.882H320.9c-0.09-.18-0.181-0.359-0.271-0.538h-0.544l-0.543-.807H319l-0.272-.538H318.18V459.84h-0.543v-0.269h-0.815V459.3h-0.543v-0.269h-0.544c-0.09-.18-0.181-0.359-0.271-0.538l-1.087-.269-0.543-.807h-0.543L311.118,455h0.543c0.576,0.84,1.084.567,1.9,1.076l0.272,0.537,2.445,0.807v0.269l1.086,0.269v0.269h0.815V458.5H319v0.269h1.358v0.269l1.9,0.269v0.268H322.8v0.269l1.358,0.269v0.269l0.815,0.269,0.271,0.538h0.544c0.09,0.179.181,0.358,0.271,0.538l1.087,0.806v0.538l0.543,0.269v0.538h0.272c0.09,0.179.181,0.358,0.271,0.538h1.63v-0.269l1.358-.269q0.543-.672,1.087-1.345c1.252-.687,3.533.224,4.618,0.538H339.1v0.269l4.889-.538v0.269h-0.272v0.269l-0.815.269v0.269h-0.814v0.269h-3.8A26.3,26.3,0,0,0,333.12,464.681Z"/>
  <path id="Color_Fill_4_copy-2" data-name="Color Fill 4 copy" class="cls-2" d="M383.22,510.909v0.538a4.562,4.562,0,0,1,.815,1.076h1.086v0.269a3.585,3.585,0,0,0-2.445.806h-0.543l-0.543.807-1.63.538v0.269h-0.543v0.269h-1.63v0.269c-1.126.3-4.223-.736-4.889-1.076v-0.269h-0.544v-0.269h-1.629v-0.269h-2.173V513.6h-0.815v-0.269h-0.815V513.06a0.472,0.472,0,0,1-.272-0.268c2.051,0.082,3.168.43,4.889-.269a3.43,3.43,0,0,0,.815-2.421c-0.585-.491-0.622-1.253-1.086-1.882H371c-0.09-.179-0.181-0.358-0.271-0.538h-0.544l-0.543-.806H369.1l-0.272-.538H368.28v-0.269h-0.543V505.8h-0.815v-0.269h-0.543v-0.269h-0.544c-0.09-.179-0.181-0.358-0.271-0.538l-1.087-.269-0.543-.806h-0.543l-2.173-2.42h0.543c0.576,0.84,1.084.566,1.9,1.075l0.272,0.538,2.445,0.807v0.269l1.086,0.269v0.268h0.815v0.269H369.1v0.269h1.358v0.269l1.9,0.269V505.8H372.9v0.269l1.358,0.269v0.269l0.815,0.269,0.271,0.537h0.544c0.09,0.18.181,0.359,0.271,0.538l1.087,0.807V509.3l0.543,0.269V510.1h0.272c0.09,0.18.181,0.359,0.271,0.538h1.63v-0.269l1.358-.269,1.087-1.344c1.252-.688,3.533.223,4.618,0.538H389.2v0.269l4.889-.538V509.3h-0.272v0.269l-0.815.269V510.1h-0.814v0.269h-3.8A26.379,26.379,0,0,0,383.22,510.909Z"/>
  <path id="Color_Fill_4_copy_3" data-name="Color Fill 4 copy 3" class="cls-2" d="M589.22,297.909v0.538a4.591,4.591,0,0,1,.815,1.076h1.086v0.269a3.59,3.59,0,0,0-2.445.806h-0.543l-0.543.807-1.63.538v0.269h-0.543v0.269h-1.63v0.269c-1.126.3-4.223-.736-4.889-1.076V301.4h-0.544v-0.269h-1.629v-0.269h-2.173V300.6h-0.815v-0.269h-0.815V300.06a0.472,0.472,0,0,1-.272-0.268c2.051,0.082,3.168.43,4.889-.269a3.43,3.43,0,0,0,.815-2.421c-0.585-.491-0.622-1.253-1.086-1.882H577c-0.09-.179-0.181-0.358-0.271-0.538h-0.544l-0.543-.806H575.1l-0.272-.538H574.28v-0.269h-0.543V292.8h-0.815v-0.269h-0.544v-0.269h-0.543c-0.09-.179-0.181-0.358-0.271-0.538l-1.087-.269-0.543-.806h-0.543l-2.173-2.42h0.543c0.576,0.84,1.084.566,1.9,1.075l0.272,0.538,2.444,0.807v0.269l1.087,0.269v0.268h0.815v0.269H575.1v0.269h1.358v0.269l1.9,0.269V292.8H578.9v0.269l1.358,0.269v0.269l0.815,0.269,0.271,0.537h0.544c0.09,0.18.181,0.359,0.271,0.538l1.087,0.807V296.3l0.543,0.269V297.1h0.272c0.09,0.18.181,0.359,0.271,0.538h1.63v-0.269l1.358-.269,1.087-1.344c1.252-.687,3.533.223,4.618,0.538H595.2v0.269l4.889-.538V296.3h-0.272v0.269l-0.815.269V297.1h-0.814v0.269h-3.8A26.379,26.379,0,0,0,589.22,297.909Z"/>
  <path id="Color_Fill_3-2" data-name="Color Fill 3" class="cls-2" d="M274.252,470.425a4.648,4.648,0,0,1-2.146-.273v-0.273h-0.8v-0.274a0.473,0.473,0,0,1-.269-0.273,16.141,16.141,0,0,0,5.1-.546v-0.274h0.536v-0.273h1.341v-0.273h0.536v-0.273h0.805c0.089-.182.179-0.364,0.268-0.547h1.073a13.681,13.681,0,0,1,4.827-.546v0.273h0.268a2.069,2.069,0,0,1-.8.547,4.574,4.574,0,0,0,1.072,1.639h0.537l0.536,0.82h0.536l0.8,1.092L289,471.245v0.546h0.268q0.135,0.546.269,1.093h0.268v1.366h0.268c0.535,1.77.081,3.737,0,5.464h-0.268v-0.273h-0.268q-0.135-.682-0.269-1.366H289v-0.546h-0.268v-0.547l-0.536-.273v-0.547l-0.537-.273v-0.546l-1.609-1.366V473.43l-1.341-1.093c-1.136-1.17-1.164-2.334-3.486-2.458-0.618-.6-1.991-0.15-2.682,0a15.553,15.553,0,0,1-6.972,6.83v-1.366c0.606-.557.2-0.608,0.536-1.366h0.268l0.537-1.64h0.268v-0.546h0.268A3.056,3.056,0,0,0,274.252,470.425Z"/>
  <path id="Color_Fill_3_copy_2" data-name="Color Fill 3 copy 2" class="cls-2" d="M454.252,418.425a4.648,4.648,0,0,1-2.146-.273v-0.273h-0.8v-0.274a0.468,0.468,0,0,1-.268-0.273,16.138,16.138,0,0,0,5.1-.546v-0.274h0.536v-0.273h1.341v-0.273h0.536v-0.273h0.805c0.089-.182.179-0.364,0.268-0.547h1.073a13.681,13.681,0,0,1,4.827-.546v0.273h0.268a2.069,2.069,0,0,1-.8.547,4.574,4.574,0,0,0,1.072,1.639h0.537l0.536,0.82h0.536l0.8,1.092L469,419.245v0.546h0.268q0.135,0.546.269,1.093h0.268v1.366h0.268c0.535,1.77.081,3.737,0,5.464h-0.268v-0.273h-0.268q-0.135-.682-0.269-1.366H469v-0.546h-0.268v-0.547l-0.536-.273v-0.547l-0.537-.273v-0.546l-1.609-1.366V421.43l-1.341-1.093c-1.136-1.17-1.164-2.334-3.486-2.458-0.618-.6-1.991-0.15-2.682,0a15.553,15.553,0,0,1-6.972,6.83v-1.366c0.606-.557.2-0.608,0.536-1.366h0.268l0.537-1.64h0.268v-0.546h0.268A3.056,3.056,0,0,0,454.252,418.425Z"/>
  <path id="Color_Fill_3_copy-2" data-name="Color Fill 3 copy" class="cls-2" d="M347.918,437.711a4.647,4.647,0,0,1-2.146-.274v-0.273h-0.8v-0.273a0.474,0.474,0,0,1-.268-0.273,16.136,16.136,0,0,0,5.1-.547V435.8h0.536v-0.273h1.341v-0.273h0.537v-0.273h0.8l0.268-.547h1.073a13.658,13.658,0,0,1,4.827-.546v0.273h0.268a2.066,2.066,0,0,1-.8.546,4.559,4.559,0,0,0,1.073,1.64h0.536l0.536,0.819h0.537l0.8,1.093,0.536,0.273v0.547h0.269q0.133,0.546.268,1.093h0.268v1.366h0.268c0.535,1.77.082,3.737,0,5.464h-0.268v-0.273H363.2q-0.135-.684-0.268-1.366h-0.269v-0.547H362.4v-0.546L361.863,444v-0.547l-0.536-.273v-0.546l-1.609-1.367v-0.546l-1.341-1.093c-1.137-1.171-1.165-2.335-3.487-2.459-0.618-.6-1.991-0.149-2.681,0A15.558,15.558,0,0,1,345.236,444v-1.366c0.607-.557.2-0.608,0.536-1.367h0.269q0.267-.819.536-1.639h0.268v-0.546h0.268A3.056,3.056,0,0,0,347.918,437.711Z"/>
</svg>
