<?xml version="1.0" standalone="no"?>
<!DOCTYPE svg PUBLIC "-//W3C//DTD SVG 20010904//EN"
 "http://www.w3.org/TR/2001/REC-SVG-20010904/DTD/svg10.dtd">
<svg version="1.0" xmlns="http://www.w3.org/2000/svg"
 width="1440.000000pt" height="940.000000pt" viewBox="0 0 1440.000000 940.000000"
 preserveAspectRatio="xMidYMid meet">

<g transform="translate(0.000000,940.000000) scale(0.100000,-0.100000)"
fill="#000000" stroke="none">
<path d="M3387 7704 c-10 -11 17 -70 59 -131 49 -69 152 -156 294 -248 121
-79 129 -88 109 -123 -15 -27 -24 -30 -128 -49 -25 -4 -46 -13 -48 -20 -5 -15
82 -110 108 -118 29 -9 70 21 116 86 24 32 49 59 55 59 7 0 51 -7 98 -15 47
-8 128 -15 181 -15 82 0 102 4 146 25 28 15 57 33 63 40 11 13 6 15 -27 15
-22 0 -78 16 -126 35 -48 19 -102 35 -120 35 -24 0 -41 8 -63 31 -41 44 -69
53 -107 34 -53 -26 -68 -19 -127 56 -63 82 -109 121 -177 150 -26 12 -76 34
-111 50 -35 16 -66 29 -69 29 -3 0 -32 18 -63 39 -32 22 -60 37 -63 35z"/>
<path d="M2584 6944 c-18 -42 -13 -74 20 -124 42 -64 50 -105 36 -182 -9 -53
-9 -72 0 -83 27 -33 -8 -65 -72 -65 -33 0 -33 -1 -12 -43 29 -55 37 -56 138
-6 33 16 67 29 77 29 10 0 33 13 51 29 18 15 48 36 66 45 79 41 143 121 141
178 0 22 -1 22 -9 3 -4 -12 -30 -38 -56 -60 -27 -21 -65 -54 -85 -72 -34 -33
-38 -34 -85 -26 l-49 8 -6 118 -6 118 -36 30 c-20 16 -48 54 -63 84 -14 30
-28 55 -31 55 -2 0 -11 -16 -19 -36z"/>
<path d="M1724 6052 c10 -17 88 -58 144 -77 57 -18 67 -41 24 -60 -28 -12 -28
-21 0 -36 18 -10 24 -8 40 11 10 12 18 28 18 36 0 9 12 14 35 14 39 0 88 18
120 44 19 16 17 17 -40 15 -33 -1 -68 1 -78 6 -10 4 -23 2 -31 -4 -11 -10 -26
-6 -68 17 -53 30 -177 55 -164 34z"/>
<path d="M2590 6043 c8 -4 58 -21 110 -38 81 -28 96 -37 105 -60 8 -22 6 -29
-8 -40 -25 -18 -5 -24 57 -17 38 4 57 13 81 37 38 38 89 54 209 66 50 5 102
11 116 15 24 5 23 6 -12 19 -46 15 -184 -2 -269 -34 -78 -30 -124 -28 -165 8
-18 17 -50 35 -71 40 -39 11 -180 14 -153 4z"/>
<path d="M1720 5520 c6 -12 22 -26 35 -32 30 -14 63 -84 47 -100 -16 -16 -15
-28 3 -28 8 0 15 4 15 8 0 4 23 25 50 45 28 21 50 45 50 55 -1 13 -5 11 -21
-10 -14 -19 -30 -28 -48 -28 -23 0 -31 7 -46 39 -13 29 -25 42 -46 46 -16 4
-29 11 -29 16 0 5 -5 9 -10 9 -7 0 -7 -7 0 -20z"/>
<path d="M735 5095 c17 -14 55 -39 85 -54 70 -37 92 -61 88 -98 -2 -22 -11
-31 -38 -40 l-35 -12 35 -1 c19 0 46 -7 60 -15 39 -22 98 -18 147 11 34 20 43
30 38 45 -7 21 -2 22 112 24 81 1 85 20 5 21 -37 0 -82 2 -100 4 -20 2 -39 -3
-50 -13 -29 -26 -60 -20 -93 17 -23 26 -50 41 -112 61 -45 15 -102 38 -127 52
l-45 24 30 -26z"/>
<path d="M2325 4520 c-72 -22 -84 -29 -61 -31 28 -4 29 -5 13 -21 -16 -15 -47
-78 -47 -93 0 -14 80 53 96 80 23 39 32 45 73 45 28 0 42 -9 83 -52 27 -29 57
-65 66 -80 24 -42 35 -34 27 20 -9 60 -17 75 -60 108 -19 14 -35 33 -35 40 0
21 -52 16 -155 -16z"/>
<path d="M1245 4505 c17 -15 54 -38 84 -53 71 -35 99 -71 83 -107 -9 -20 -19
-25 -49 -25 -28 0 -34 -3 -23 -10 8 -5 27 -10 41 -10 15 0 43 -7 62 -15 46
-19 69 -19 110 0 64 31 76 40 67 55 -14 23 8 30 92 30 42 0 79 4 83 9 3 6 -15
9 -42 9 -27 -1 -72 2 -100 6 -43 6 -54 5 -59 -7 -3 -9 -19 -19 -35 -22 -24 -6
-34 -1 -66 33 -30 31 -54 44 -113 62 -41 12 -95 33 -120 46 l-45 25 30 -26z"/>
<path d="M231 4374 c-18 -8 -61 -21 -95 -29 -36 -7 -50 -13 -33 -14 27 -1 38
-23 17 -36 -11 -7 -42 -76 -37 -81 8 -8 79 54 102 89 27 38 45 44 89 27 28
-10 90 -74 122 -126 25 -40 36 -34 28 15 -10 60 -25 89 -61 117 -20 15 -32 32
-29 40 7 19 -57 17 -103 -2z"/>
<path d="M13694 4225 c11 -8 25 -15 31 -15 19 0 57 -47 54 -66 -5 -30 10 -44
47 -44 37 0 87 26 78 41 -3 5 5 13 18 18 23 10 23 10 -4 10 -15 1 -30 -3 -33
-9 -11 -17 -39 -11 -62 14 -12 12 -50 32 -85 44 -43 14 -57 16 -44 7z"/>
<path d="M2250 4061 c0 -4 28 -23 63 -41 78 -42 109 -74 105 -109 -2 -20 -11
-29 -38 -38 l-35 -12 42 0 c23 -1 43 -6 45 -12 2 -6 27 -14 54 -16 44 -5 59
-1 105 26 30 17 48 31 42 31 -7 0 -13 6 -13 14 0 17 78 30 120 21 17 -4 30 -2
30 3 0 5 -36 13 -81 16 -66 6 -84 5 -98 -8 -28 -25 -55 -19 -98 22 -27 26 -59
44 -99 56 -32 9 -78 26 -101 36 -24 11 -43 16 -43 11z"/>
<path d="M880 3879 c-30 -10 -68 -22 -85 -26 l-30 -7 28 -4 28 -3 -20 -32
c-29 -48 -44 -90 -28 -81 39 22 79 59 92 84 23 44 47 53 92 35 39 -17 118
-102 140 -153 12 -26 12 -25 13 19 0 63 -23 114 -65 141 -19 13 -35 29 -35 36
0 17 -64 13 -130 -9z"/>
<path d="M14007 3859 c7 -7 15 -10 18 -7 3 3 -2 9 -12 12 -14 6 -15 5 -6 -5z"/>
<path d="M14069 3824 c21 -17 31 -34 29 -48 -4 -33 10 -46 52 -46 30 0 43 6
60 28 12 15 36 30 53 33 30 6 30 6 -10 8 -23 0 -45 -3 -48 -9 -10 -16 -43 -11
-57 8 -15 22 -41 36 -82 46 l-29 7 32 -27z"/>
<path d="M13345 3785 c-16 -8 -43 -15 -60 -16 -17 -1 -23 -3 -12 -6 21 -6 21
-8 1 -39 -34 -51 1 -33 49 26 26 31 62 19 109 -33 32 -36 37 -39 38 -21 0 27
-59 103 -80 103 -8 0 -28 -7 -45 -14z"/>
<path d="M11220 3730 c0 -5 5 -10 11 -10 5 0 7 5 4 10 -3 6 -8 10 -11 10 -2 0
-4 -4 -4 -10z"/>
<path d="M14167 3674 c-15 -29 -23 -54 -18 -54 6 0 13 5 16 10 3 6 12 10 20
10 18 0 8 -37 -23 -77 -29 -39 -16 -44 18 -8 27 28 56 34 46 9 -3 -9 -6 -19
-6 -23 0 -4 -18 -27 -40 -52 -49 -54 -50 -64 -5 -38 19 12 35 25 35 30 0 14
20 10 26 -5 7 -19 -65 -115 -92 -122 -28 -7 -76 18 -97 50 -20 29 -9 39 29 30
l28 -7 -27 29 c-34 36 -36 58 -4 48 l22 -6 -22 24 c-13 13 -23 30 -23 36 0 21
-14 13 -44 -25 -18 -22 -23 -34 -14 -30 43 16 23 -34 -25 -63 -37 -23 -25 -27
13 -5 29 17 50 19 50 6 0 -16 -51 -71 -61 -65 -5 3 -9 0 -9 -5 0 -6 -7 -11
-15 -11 -8 0 -15 -4 -15 -9 0 -11 39 -3 58 12 9 7 17 6 25 -2 9 -9 3 -20 -28
-48 -21 -19 -53 -42 -70 -49 l-30 -13 31 -1 c17 0 43 10 58 21 34 27 51 14 41
-30 -4 -20 -17 -36 -33 -45 -34 -17 -285 -111 -334 -124 l-38 -10 -17 54 c-9
30 -20 54 -24 54 -5 0 -26 -31 -49 -70 -22 -38 -48 -74 -58 -79 -24 -12 -225
-57 -372 -82 -108 -18 -124 -19 -137 -6 -12 12 -13 19 -4 36 15 27 45 27 72
-1 l21 -23 -7 24 c-6 21 -5 23 11 17 11 -4 32 -10 49 -13 29 -6 29 -6 12 11
-9 10 -15 21 -12 26 5 8 -42 20 -80 20 -12 0 -34 9 -49 21 -24 19 -26 26 -26
99 0 43 3 85 6 94 7 19 44 22 44 4 0 -7 18 -33 40 -58 22 -25 40 -39 40 -32 0
7 -7 20 -15 28 -8 9 -15 20 -15 25 0 14 28 10 37 -6 6 -10 13 -11 23 -5 12 8
12 10 1 10 -7 0 -11 6 -8 14 4 9 -9 19 -40 31 -25 10 -63 35 -84 57 -34 35
-38 46 -41 98 l-3 59 -25 -20 c-14 -12 -19 -18 -12 -14 6 3 15 0 18 -8 9 -25
-43 -95 -86 -117 -22 -11 -40 -25 -40 -31 0 -18 31 -22 47 -6 15 15 18 15 29
-1 12 -16 13 -16 14 0 0 18 26 48 41 48 5 0 9 -37 9 -83 0 -81 -1 -84 -32
-114 -18 -18 -57 -45 -87 -61 -47 -25 -54 -33 -56 -61 -2 -24 0 -30 8 -22 6 6
23 11 38 11 16 0 37 10 50 25 32 33 53 33 47 0 -4 -19 -1 -25 11 -23 24 4 26
-44 3 -65 -44 -40 -443 -50 -634 -17 -622 108 -1433 302 -1962 469 -315 100
-529 134 -856 135 -494 1 -880 -84 -1660 -362 -979 -350 -1533 -493 -2150
-556 -698 -72 -1211 9 -2220 349 -493 166 -815 256 -1130 315 -339 63 -494 64
-777 4 -28 -6 -37 -2 -73 33 -35 35 -40 45 -40 87 0 44 -1 46 -20 34 -17 -10
-18 -14 -5 -16 20 -4 19 -6 -9 -51 -13 -21 -38 -44 -55 -51 -17 -7 -31 -17
-31 -22 0 -16 32 -21 42 -7 7 11 11 11 15 2 7 -20 23 -15 23 6 0 10 7 21 15
25 12 4 15 -3 15 -33 0 -34 -3 -40 -27 -46 -15 -3 -84 -27 -152 -52 -147 -53
-135 -58 -177 78 -15 49 -31 89 -35 89 -4 0 -29 -37 -56 -82 -55 -94 -244
-298 -306 -329 -20 -11 -37 -26 -37 -33 0 -21 -46 -46 -85 -46 -48 0 -135 45
-135 69 0 16 6 19 27 15 94 -14 119 -6 46 15 -63 18 -93 39 -93 64 0 9 9 12
30 9 39 -6 38 8 -2 33 -39 25 -47 45 -19 45 12 0 21 5 21 10 0 6 -5 10 -10 10
-6 0 -22 12 -36 27 -13 14 -25 24 -27 22 -31 -53 -56 -109 -48 -109 5 0 13 5
16 10 3 6 12 10 20 10 18 0 8 -37 -23 -77 -29 -39 -16 -44 18 -8 27 28 56 34
46 9 -3 -9 -6 -19 -6 -23 0 -4 -18 -27 -40 -52 -49 -54 -50 -64 -5 -38 19 12
35 25 35 30 0 15 20 10 26 -6 9 -21 -82 -134 -108 -135 -10 0 -48 42 -48 52 0
5 11 6 25 2 25 -6 35 9 14 22 -6 3 -18 23 -28 43 l-16 36 -50 -54 -50 -54 32
6 c31 6 32 5 21 -17 -5 -13 -25 -32 -44 -42 -45 -24 -33 -37 17 -17 22 8 43
13 46 9 17 -16 -94 -96 -134 -96 -9 0 -13 -3 -10 -6 12 -12 82 -9 95 3 17 17
32 16 32 0 0 -17 -88 -84 -123 -92 -39 -10 -18 -32 28 -29 19 2 35 1 35 -1 0
-2 -20 -18 -45 -36 l-45 -32 0 -1239 0 -1238 7200 0 7200 0 0 1690 0 1689 -46
-19 c-25 -11 -48 -20 -50 -20 -10 0 -24 54 -19 69 5 13 10 12 26 -9 12 -14 18
-20 15 -13 -8 14 14 29 23 16 7 -11 51 -12 51 -1 0 4 -9 8 -20 8 -36 0 -120
49 -120 69 0 16 6 19 28 15 93 -14 118 -6 45 15 -63 18 -93 39 -93 64 0 9 9
12 30 9 39 -6 38 8 -2 33 -39 25 -47 45 -19 45 27 0 27 17 1 25 -11 3 -25 15
-30 26 -6 10 -14 19 -18 18 -4 0 -19 -25 -35 -55z m97 -296 c3 -13 6 -30 6
-39 0 -21 -134 -82 -161 -74 -14 5 -17 2 -13 -8 3 -10 -5 -18 -27 -26 -18 -6
-34 -11 -35 -11 -2 0 -4 16 -4 35 0 24 5 35 15 35 8 0 15 -8 15 -17 0 -13 3
-14 12 -5 9 9 6 18 -15 40 -50 52 -26 72 41 35 27 -16 50 -22 60 -17 9 4 20 8
24 8 15 2 48 37 48 51 0 24 27 18 34 -7z m-12814 -122 c0 -2 -7 -6 -15 -10 -8
-3 -15 -1 -15 4 0 6 7 10 15 10 8 0 15 -2 15 -4z m-1002 -427 c-2 7 3 16 10
18 6 3 12 -1 12 -7 0 -7 8 -9 20 -5 11 3 20 4 20 1 0 -7 -72 -56 -83 -56 -12
0 -29 52 -22 69 5 13 10 12 26 -9 11 -14 18 -19 17 -11z m-64 -11 c14 -52 7
-65 -56 -106 -61 -40 -62 -41 -91 -24 -26 15 -47 47 -47 73 0 11 41 -8 52 -25
5 -8 8 -7 8 2 0 6 7 12 15 12 8 0 15 7 15 16 0 10 6 14 14 11 16 -7 56 28 56
48 0 24 27 17 34 -7z m-157 -176 c-19 -19 -47 -9 -47 17 0 18 3 19 31 9 27 -9
29 -12 16 -26z m-87 -56 c0 -2 -7 -9 -15 -16 -13 -11 -14 -10 -9 4 5 14 24 23
24 12z"/>
<path d="M12880 3613 c-41 -21 -42 -23 -15 -20 17 2 37 6 45 8 11 3 16 -7 18
-41 2 -36 8 -47 27 -57 31 -14 33 1 5 37 -11 14 -20 41 -20 63 0 42 0 42 -60
10z"/>
<path d="M1385 3559 c-4 -5 -19 -15 -33 -21 -22 -9 -24 -12 -9 -15 10 -3 24 0
31 6 17 15 26 4 26 -33 0 -20 7 -36 20 -44 25 -15 28 4 5 34 -8 10 -15 34 -15
52 0 31 -13 42 -25 21z"/>
<path d="M13759 3474 c-23 -10 -41 -27 -52 -49 -22 -46 -9 -44 35 5 33 36 38
39 65 29 15 -6 43 -28 61 -51 31 -39 32 -39 32 -14 0 31 -60 96 -87 95 -10 0
-34 -7 -54 -15z"/>
<path d="M11690 3410 c0 -6 7 -10 15 -10 8 0 15 2 15 4 0 2 -7 6 -15 10 -8 3
-15 1 -15 -4z"/>
<path d="M3757 3050 c7 -26 30 -37 46 -21 8 8 8 11 -3 11 -7 0 -21 7 -31 16
-16 15 -17 14 -12 -6z"/>
<path d="M4170 2923 c8 -3 22 -11 30 -17 13 -10 13 -9 1 7 -7 9 -21 17 -30 16
-13 0 -14 -1 -1 -6z"/>
<path d="M3900 2886 c0 -24 29 -31 48 -12 16 16 16 17 -1 10 -9 -3 -24 -1 -32
6 -12 10 -15 9 -15 -4z"/>
<path d="M4177 2760 c6 -21 37 -27 48 -10 3 6 -3 10 -14 10 -12 0 -21 5 -21
10 0 6 -4 10 -9 10 -5 0 -7 -9 -4 -20z"/>
</g>
</svg>
